<?xml version="1.0" encoding="utf-8"?>
<!-- Generator: Adobe Illustrator 16.0.0, SVG Export Plug-In . SVG Version: 6.00 Build 0)  -->
<!DOCTYPE svg PUBLIC "-//W3C//DTD SVG 1.1//EN" "http://www.w3.org/Graphics/SVG/1.1/DTD/svg11.dtd">
<svg version="1.1" id="Layer_1" xmlns="http://www.w3.org/2000/svg" xmlns:xlink="http://www.w3.org/1999/xlink" x="0px" y="0px"
	 width="121.667px" height="82.129px" viewBox="0 0 121.667 82.129" enable-background="new 0 0 121.667 82.129"
	 xml:space="preserve">
<g>
	<g>
		<g>
			<g>
				<g>
					<path fill="#73624D" d="M6.323,58.688H2.944l0.014-16.842H0.367v-0.658h5.944L6.31,41.846L6.323,58.688z M13.792,58.688
						l-7.195-9.092l7.279-7.75l0.591-0.658h2.993v0.658h-2.537l-5.737,5.998l8.359,10.187h1.204v0.657H13.792z"/>
					<path fill="#73624D" d="M26.664,41.846v7.517c2.515,0,3.852-0.399,3.979-3.197h0.735v7.306h-0.735
						c-0.235-2.906-1.147-3.534-3.979-3.453v8.013h3.719c3.402,0,4.137-2.019,4.688-4.977h0.761l-0.234,5.634H23.283l0.03-16.842
						h-2.616v-0.658h14.478l0.157,4.723h-0.73c-0.552-2.518-1.551-3.49-2.886-3.855c-0.655-0.182-1.413-0.209-2.275-0.209H26.664z"
						/>
					<path fill="#73624D" d="M45.719,58.688h-3.39l0.008-16.842h-2.591v-0.658h8.767c2.86,0,6.262,0.344,6.262,3.982
						c0,2.96-3.117,3.98-5.553,4.244v0.051c4.089,0.633,5.003,2.828,5.003,7.1c0,0.916,0.078,1.965,2.598,1.488v0.635
						c-0.74,0.174-1.471,0.311-2.229,0.311c-2.646,0-4.037-1.336-4.037-4.01c0-2.168-0.361-3.793-1.042-4.374
						c-0.735-0.622-1.572-0.937-2.383-0.937h-1.443L45.719,58.688z M45.688,49.019h2.149c2.357,0,3.324-1.122,3.324-3.481
						c0-2.928-0.864-3.691-3.195-3.691h-2.278V49.019z"/>
					<path fill="#73624D" d="M64.664,58.688H61.21l0.033-16.842h-2.59v-0.658h8.769c2.858,0,6.261,0.344,6.261,3.982
						c0,2.96-3.12,3.98-5.554,4.244v0.051c4.085,0.633,5.001,2.828,5.001,7.1c0,0.916,0.083,1.965,2.593,1.488v0.635
						c-0.729,0.174-1.464,0.311-2.224,0.311c-2.646,0-4.035-1.336-4.035-4.01c0-2.168-0.364-3.793-1.047-4.374
						c-0.729-0.622-1.573-0.937-2.383-0.937h-1.438L64.664,58.688z M64.597,49.019h2.146c2.356,0,3.327-1.122,3.327-3.481
						c0-2.928-0.865-3.691-3.199-3.691h-2.274V49.019z"/>
					<polygon fill="#73624D" points="83.954,58.688 84.003,50.752 78.501,41.846 76.594,41.846 76.594,41.188 82.044,41.188 
						82.408,41.846 86.883,49.363 91.307,41.188 92.293,41.188 87.354,50.178 87.354,58.03 87.366,58.03 87.366,58.688 					"/>
					<polygon fill="#73624D" points="15.578,36.285 12.191,36.285 12.192,18.866 9.567,18.866 9.567,18.205 15.604,18.205 					"/>
					<polygon fill="#73624D" points="34.562,36.265 33.765,36.265 22.524,19.399 22.524,36.285 21.649,36.285 21.679,18.869 
						19.078,18.869 19.078,18.205 25.859,18.205 33.708,29.792 33.708,18.869 33.708,18.205 34.585,18.205 					"/>
					<path fill="#73624D" d="M51.554,23.189c-0.556-2.356-2.147-4.718-5.015-4.718c-4.932,0-4.692,4.531-4.692,8.434
						c0,3.502-0.502,8.746,4.349,8.746c3.685,0,3.263-2.78,3.263-5.514H46.78v-0.662h6.443v0.662
						c-0.056,3.898-2.97,6.181-6.732,6.181c-3,0-4.752-1.011-6.658-3.287c-1.381-1.65-1.884-3.852-1.884-5.943
						c0-2.44,0.901-4.59,2.468-6.471c1.532-1.83,3.391-2.812,5.807-2.812c1.853,0,3.02,0.427,4.452,1.38l1.061-1.113h0.587v5.116
						H51.554z"/>
					<path fill="#73624D" d="M61.642,36.285l0.37-1.031l6.337-17.446h0.901l6.217,17.812h2.119v0.665h-5.431l-0.218-0.665
						l-0.139-0.366l-1.619-4.692h-5.726l-1.646,4.692h0.012l-0.383,1.031H61.642z M64.748,29.9h5.165l-2.487-7.401L64.748,29.9z"/>
					<polygon fill="#73624D" points="91.999,36.265 91.2,36.265 79.962,19.399 79.985,36.285 79.105,36.285 79.11,18.869 
						76.512,18.869 76.512,18.205 83.299,18.205 91.149,29.792 91.149,18.869 91.137,18.869 91.137,18.205 91.999,18.205 
						91.999,18.869 					"/>
					<path fill="#73624D" d="M6.448,18.866v-0.661H0.214v0.661h2.838V35.18c0,1.191-0.321,2.385-1.751,2.385
						c-0.211,0-0.741-0.02-1.099-0.18L0,37.695c0.177,0.277,0.577,0.434,1.272,0.53c2.1,0.303,3.846-1.219,4.722-3.075
						c0.639-1.354,0.454-3.823,0.454-5.359V18.866z"/>
					<path fill="#73624D" d="M14.249,75.945v5.316h-0.57l-1.064-1.241c-1.166,1.01-2.905,1.476-4.436,1.476
						c-4.564,0-8.012-4.641-8.012-8.943c0-3.375,1.79-6.568,4.692-8.301c1.037-0.598,2.335-0.858,3.528-0.858
						c1.453,0,2.88,0.415,4.018,1.349l1.04-1.088h0.571v5.004h-0.751c-0.39-2.82-2.363-4.615-4.903-4.615
						c-1.659,0-2.518,0.362-3.425,1.761c-1.217,1.87-0.958,4.879-0.958,6.981c0,1.479-0.054,3.5,0.441,5.185
						c0.492,1.663,1.712,2.778,3.68,2.882c3.192,0.157,4.669-2.104,5.419-4.906H14.249z"/>
					<path fill="#73624D" d="M21.078,64.471v7.448c2.49,0,3.81-0.391,3.941-3.164h0.726v7.233H25.02
						c-0.232-2.879-1.142-3.5-3.941-3.421v7.931h3.684c3.37,0,4.097-1.996,4.64-4.924h0.752l-0.234,5.883H17.725l0.031-16.986
						h-2.593v-0.645h14.34l0.161,4.67h-0.732c-0.541-2.492-1.527-3.455-2.85-3.814c-0.646-0.18-1.402-0.211-2.257-0.211H21.078z"/>
					<polygon fill="#73624D" points="45.724,81.447 44.947,81.447 33.95,64.953 33.95,81.422 33.122,81.422 33.122,64.428 
						30.577,64.428 30.577,63.782 37.217,63.782 44.895,75.118 44.895,63.803 45.724,63.803 					"/>
					<path fill="#73624D" d="M52.863,81.422V64.428c-3.658-0.176-4.774,1.589-5.242,4.91h-0.826l0.282-5.556h14.864l0.284,5.556
						h-0.805c-0.466-3.321-1.581-5.086-5.241-4.91v16.994H52.863z"/>
					<path fill="#73624D" d="M84.669,64.428v7.451c2.49,0,3.812-0.392,3.941-3.166h0.726v7.232H88.61
						c-0.23-2.873-1.142-3.496-3.941-3.42v7.934h3.684c3.373,0,4.101-1.993,4.645-4.925h0.75l-0.235,5.888H81.351V64.428h-2.596
						v-0.646H93.1l0.156,4.671H92.53c-0.545-2.494-1.532-3.449-2.855-3.816c-0.648-0.18-1.399-0.209-2.254-0.209H84.669z"/>
					<path fill="#73624D" d="M69.081,81.422h-3.318V64.428h-2.571v-0.646h8.691c2.825,0,6.198,0.338,6.198,3.94
						c0,2.932-3.086,3.945-5.502,4.207v0.051c4.049,0.623,4.954,2.804,4.954,7.027c0,0.91,0.083,1.945,2.571,1.479v0.621
						c-0.727,0.184-1.454,0.314-2.21,0.314c-2.617,0-3.989-1.324-3.989-3.968c0-2.156-0.364-3.764-1.04-4.331
						c-0.726-0.623-1.553-0.935-2.36-0.935h-1.424V81.422z M69.081,71.541h2.127c2.333,0,3.292-1.117,3.292-3.449
						c0-2.906-0.857-3.664-3.165-3.664h-2.254V71.541z"/>
				</g>
			</g>
		</g>
	</g>
	<g>
		<polygon fill="#631B4B" points="108.7,10.084 102.479,13.676 96.259,10.084 102.479,6.493 		"/>
		<polygon fill="#886F81" points="108.7,10.085 108.7,16.578 102.479,20.17 102.479,13.676 		"/>
		<polygon fill="#E35E26" points="121.141,10.085 121.141,16.578 114.921,20.17 114.921,13.676 		"/>
		<polygon fill="#EDA153" points="108.7,10.085 114.921,13.676 114.921,20.17 108.7,16.578 		"/>
		<polygon fill="#82C4B7" points="108.7,10.085 108.7,3.591 114.921,0 114.921,6.493 		"/>
		<polygon fill="#01A3A2" points="108.7,10.085 102.479,6.493 102.479,0 108.7,3.591 		"/>
	</g>
</g>
</svg>
