<?xml version="1.0" encoding="utf-8"?>
<!-- Generator: Adobe Illustrator 16.0.0, SVG Export Plug-In . SVG Version: 6.00 Build 0)  -->
<!DOCTYPE svg PUBLIC "-//W3C//DTD SVG 1.1//EN" "http://www.w3.org/Graphics/SVG/1.1/DTD/svg11.dtd">
<svg version="1.1" id="Layer_1" xmlns="http://www.w3.org/2000/svg" xmlns:xlink="http://www.w3.org/1999/xlink" x="0px" y="0px"
	 width="121.667px" height="106px" viewBox="0 -12.436 121.667 106" enable-background="new 0 -12.436 121.667 106"
	 xml:space="preserve">
<g>
	<g>
		<g>
			<g>
				<g>
					<path fill="#73624D" d="M7.127,47.077H3.802l0.013-16.579h-2.55V29.85h5.851l-0.002,0.649L7.127,47.077z M14.48,47.077
						l-7.083-8.949l7.166-7.629l0.582-0.649h2.947v0.649h-2.498l-5.647,5.904l8.229,10.028h1.185v0.646H14.48z"/>
					<path fill="#73624D" d="M27.152,30.499v7.399c2.475,0,3.792-0.393,3.917-3.148h0.723v7.191h-0.723
						c-0.232-2.86-1.13-3.479-3.917-3.399v7.889h3.661c3.349,0,4.073-1.987,4.614-4.899h0.749l-0.231,5.545H23.824l0.03-16.579
						h-2.576V29.85H35.53l0.155,4.649h-0.719c-0.543-2.478-1.527-3.435-2.841-3.795c-0.645-0.178-1.391-0.205-2.24-0.205H27.152z"/>
					<path fill="#73624D" d="M45.91,47.077h-3.337l0.009-16.579H40.03V29.85h8.63c2.816,0,6.165,0.339,6.165,3.921
						c0,2.914-3.07,3.919-5.466,4.178v0.05c4.024,0.623,4.924,2.784,4.924,6.99c0,0.9,0.078,1.934,2.558,1.464v0.625
						c-0.728,0.172-1.448,0.305-2.194,0.305c-2.604,0-3.975-1.313-3.975-3.945c0-2.136-0.356-3.735-1.025-4.307
						c-0.724-0.612-1.548-0.922-2.346-0.922h-1.42L45.91,47.077z M45.879,37.559h2.117c2.319,0,3.271-1.104,3.271-3.427
						c0-2.882-0.85-3.633-3.146-3.633h-2.243V37.559z"/>
					<path fill="#73624D" d="M64.559,47.077H61.16l0.032-16.579h-2.55V29.85h8.633c2.813,0,6.163,0.339,6.163,3.921
						c0,2.914-3.072,3.919-5.468,4.178v0.05c4.021,0.623,4.924,2.784,4.924,6.99c0,0.9,0.082,1.934,2.552,1.464v0.625
						c-0.718,0.172-1.441,0.305-2.188,0.305c-2.605,0-3.972-1.313-3.972-3.945c0-2.136-0.359-3.735-1.031-4.307
						c-0.719-0.612-1.549-0.922-2.346-0.922h-1.416L64.559,47.077z M64.493,37.559h2.114c2.319,0,3.274-1.104,3.274-3.427
						c0-2.882-0.852-3.633-3.149-3.633h-2.239V37.559z"/>
					<polygon fill="#73624D" points="83.549,47.077 83.597,39.266 78.181,30.499 76.303,30.499 76.303,29.85 81.668,29.85 
						82.028,30.499 86.432,37.898 90.788,29.85 91.758,29.85 86.896,38.7 86.896,46.431 86.909,46.431 86.909,47.077 					"/>
					<polygon fill="#73624D" points="16.239,25.023 12.905,25.023 12.906,7.876 10.322,7.876 10.322,7.226 16.265,7.226 					"/>
					<polygon fill="#73624D" points="34.926,25.004 34.142,25.004 23.077,8.401 23.077,25.023 22.215,25.023 22.244,7.879 
						19.685,7.879 19.685,7.226 26.36,7.226 34.086,18.631 34.086,7.879 34.086,7.226 34.95,7.226 					"/>
					<path fill="#73624D" d="M51.653,12.133c-0.546-2.319-2.113-4.645-4.937-4.645c-4.854,0-4.619,4.46-4.619,8.302
						c0,3.448-0.494,8.61,4.281,8.61c3.626,0,3.211-2.736,3.211-5.428h-2.636v-0.651h6.343v0.651
						c-0.056,3.838-2.923,6.085-6.627,6.085c-2.954,0-4.678-0.995-6.554-3.235c-1.359-1.625-1.855-3.792-1.855-5.851
						c0-2.402,0.887-4.519,2.429-6.37c1.508-1.801,3.337-2.768,5.716-2.768c1.823,0,2.973,0.42,4.383,1.358l1.044-1.096h0.578v5.037
						H51.653z"/>
					<path fill="#73624D" d="M61.584,25.023l0.364-1.015l6.238-17.174h0.888l6.119,17.535h2.086v0.654h-5.345l-0.215-0.654
						l-0.137-0.361l-1.594-4.619h-5.638l-1.619,4.619h0.011l-0.377,1.015H61.584z M64.642,18.739h5.085l-2.449-7.286L64.642,18.739z
						"/>
					<polygon fill="#73624D" points="91.469,25.004 90.682,25.004 79.62,8.401 79.642,25.023 78.777,25.023 78.78,7.879 
						76.223,7.879 76.223,7.226 82.905,7.226 90.632,18.631 90.632,7.879 90.621,7.879 90.621,7.226 91.469,7.226 91.469,7.879 
											"/>
					<path fill="#73624D" d="M7.251,7.876v-0.65H1.114v0.65h2.794v16.06c0,1.172-0.316,2.348-1.724,2.348
						c-0.208,0-0.729-0.02-1.082-0.178l-0.199,0.306c0.174,0.273,0.568,0.427,1.252,0.521c2.067,0.298,3.786-1.2,4.648-3.027
						c0.629-1.333,0.447-3.763,0.447-5.275V7.876z"/>
					<path fill="#73624D" d="M14.931,64.066v5.234h-0.562l-1.048-1.223c-1.147,0.994-2.86,1.452-4.366,1.452
						c-4.493,0-7.887-4.568-7.887-8.804c0-3.323,1.762-6.467,4.62-8.172c1.021-0.587,2.298-0.845,3.473-0.845
						c1.431,0,2.835,0.409,3.955,1.327l1.024-1.069h0.562v4.925h-0.739c-0.384-2.777-2.327-4.544-4.827-4.544
						c-1.633,0-2.478,0.357-3.371,1.734c-1.199,1.84-0.944,4.803-0.944,6.872c0,1.457-0.052,3.445,0.435,5.104
						c0.484,1.637,1.685,2.735,3.622,2.837c3.143,0.155,4.596-2.069,5.334-4.829H14.931z"/>
					<path fill="#73624D" d="M21.653,52.77v7.333c2.452,0,3.75-0.385,3.879-3.115h0.714v7.121h-0.714
						c-0.229-2.834-1.123-3.446-3.879-3.367v7.807h3.625c3.318,0,4.033-1.965,4.568-4.848h0.74l-0.23,5.791H18.351l0.031-16.722
						h-2.551v-0.635h14.116l0.158,4.598h-0.72c-0.533-2.453-1.504-3.4-2.806-3.754c-0.637-0.178-1.381-0.209-2.222-0.209H21.653z"/>
					<polygon fill="#73624D" points="45.915,69.482 45.15,69.482 34.325,53.245 34.325,69.456 33.509,69.456 33.509,52.729 
						31.004,52.729 31.004,52.093 37.54,52.093 45.098,63.252 45.098,52.113 45.915,52.113 					"/>
					<path fill="#73624D" d="M52.943,69.456V52.729c-3.601-0.174-4.7,1.563-5.16,4.833h-0.814l0.278-5.469h14.631l0.281,5.469
						h-0.792c-0.459-3.27-1.557-5.007-5.16-4.833v16.728H52.943z"/>
					<path fill="#73624D" d="M84.253,52.729v7.334c2.45,0,3.753-0.385,3.88-3.116h0.714v7.12h-0.714
						c-0.227-2.828-1.124-3.442-3.88-3.367v7.811h3.626c3.32,0,4.036-1.962,4.572-4.849h0.738l-0.232,5.795H80.986V52.729h-2.555
						v-0.636h14.12l0.154,4.598h-0.714c-0.536-2.455-1.509-3.396-2.811-3.756c-0.639-0.179-1.378-0.206-2.22-0.206H84.253z"/>
					<path fill="#73624D" d="M68.909,69.456h-3.268V52.729h-2.53v-0.636h8.556c2.78,0,6.102,0.332,6.102,3.879
						c0,2.887-3.038,3.884-5.417,4.142v0.05c3.985,0.612,4.877,2.761,4.877,6.918c0,0.896,0.082,1.915,2.531,1.455v0.612
						c-0.715,0.18-1.431,0.308-2.175,0.308c-2.576,0-3.928-1.303-3.928-3.905c0-2.122-0.358-3.704-1.023-4.263
						c-0.715-0.614-1.528-0.92-2.324-0.92h-1.4V69.456z M68.909,59.73h2.093c2.297,0,3.24-1.1,3.24-3.396
						c0-2.86-0.844-3.606-3.114-3.606h-2.219V59.73z"/>
				</g>
			</g>
		</g>
		<path fill-rule="evenodd" clip-rule="evenodd" fill="#73624D" d="M40.741,79.742c0.04-0.01,0.518-0.075,0.678-0.185
			c0.035-0.023,0.136-0.201,0.222-0.231c0.245-0.024,0.492-0.048,0.737-0.072c0.376-0.139,1.049-0.356,1.354-0.427
			c0.188-0.042,0.534,0.012,0.568-0.012c0.157-0.113,0.304-0.312,0.502-0.407c0.191,0.048,0.635-0.049,0.849-0.133
			c0.061,0.085,0.086,0.111,0.174,0.168c0.15,0.139,1.603-0.345,1.695-0.377c0.284-0.1,0.395,0.003,0.51-0.067
			c0.096-0.027,0.115-0.076,0.223-0.176c0.019,0,0.038-0.001,0.057-0.001c0.111-0.034-0.115-0.054-0.115-0.054
			c-0.271-0.518-2.437-0.013-2.783-0.056c-0.266-0.032-0.676,0.093-0.852-0.038c-0.284-0.211,0.042-0.419-0.016-0.738
			c-0.025-0.139,0.165-0.398,0.272-0.574c0.264-0.023,0.528-0.048,0.793-0.073c0.077-0.037,0.161-0.21,0.279-0.232
			c0.098-0.018,0.872,0.029,1.078-0.022c0.204-0.051,0.241-0.199,0.45-0.18c-0.011-0.171-0.045-0.158-0.005-0.227
			c-0.124-0.273-1.454-0.03-1.589,0.033c-0.303,0.006-0.605,0.013-0.908,0.019c-0.062-0.065-0.116-0.09-0.174-0.166
			c-0.062-0.095-0.041-0.187,0.051-0.285c0-0.832-1.025-1.06-1.387-1.163c-0.303,0.252-0.566,0.998-0.141,1.423
			c-0.039,0.396-0.176,0.324-0.27,0.687c-0.583,0.126-1.273,0.174-1.754,0.264c-0.262,0.05-0.372-0.192-0.625-0.043
			c-0.31,0.074-0.185,0.169-0.392,0.292c0.026,0.372,0.181,0.54,0.131,0.792c0.482-0.03,0.671-0.232,0.96-0.248
			c0.068-0.003,0.269,0.056,0.454-0.009c0.259-0.091,0.741-0.41,1.016-0.306c0.076-0.001,0.152-0.003,0.227-0.005
			c0.077,0.297,0.219,0.706,0.133,0.905c-0.064,0.208-0.169,0.252-0.276,0.403c-0.693,0.032-1.264,0.278-1.807,0.437
			c-0.61,0.177-1.117-0.006-1.527,0.315c-0.34,0.046-0.069,0.072-0.337,0.178C39.186,79.638,39.97,79.943,40.741,79.742z
			 M77.976,78.956c-0.298,0.052-0.827-0.027-1.078-0.058c-0.416-0.049-1.148,0.39-1.476,0.171c-0.092-0.048-0.199-0.614-0.114-0.966
			c0.043-0.175-0.085-0.573,0.057-0.964c0.06-0.161,0.244-0.263,0.341-0.397c0.06-0.068,0.013-0.051,0.057-0.171
			c-0.091-0.099-0.086-0.223-0.17-0.34c-0.038-0.054-0.951-0.604-1.021-0.624c-0.156-0.046-0.359,0.049-0.567,0
			c-0.085,0.139-0.031,0.123-0.228,0.169c0.111,0.479,0.256,0.691,0.397,1.079c0.128,0.353-0.16,0.866-0.17,1.078
			c-0.026,0.524,0.322,0.933,0.057,1.307c-0.204,0.449-0.937,0.236-1.419,0.397c-0.626,0.208-2.042,0.505-2.838,0.681
			c-0.376,0.083-1.046-0.214-1.079-0.284c-0.105,0.119-0.05,0.157-0.227,0.227c0.263,0.645,0.271,1.365,0.567,1.987
			c0.127,0.267,0.431,0.573,0.567,0.851c0.058,0.303,0.113,0.605,0.171,0.908c0.02,0.146,0.213,0.248,0.397,0.397
			c0.663,0.537,1.224,0.032,1.93-0.228c0.265-0.056,0.529-0.113,0.794-0.17c0.187-0.07,0.658-0.303,0.795-0.227
			c0.851,0.107-0.013,1.599,0.284,2.669c0.019,0.067,0.131,0.233,0.113,0.339c-0.024,0.146-0.146,0.772-0.113,0.908
			c0.194,0.841,0.246,2.64,0.113,3.009c0.099,0.378,0.221,0.69,0.17,1.021c0.135,0.069,0.201,0.106,0.284,0.227
			c0.148-0.194,0.441-0.522,0.511-0.738v-0.851c0-0.415,0.041-0.814,0.113-1.077v-0.966c0.126-0.764-0.062-2.662,0.17-3.69
			c0.047-0.204-0.081-0.476,0-0.624c-0.014-0.659,0.133-0.646,0.397-0.965c0.49-0.016,2.014-0.218,2.385-0.454
			c0.908-0.017,0.863-1.08,1.191-1.702c0.294-0.558,0.751-0.594,0.965-1.306c-0.373-0.251-0.591-0.604-0.965-0.738
			C78.783,78.643,78.387,78.885,77.976,78.956z M74.003,82.475c-0.185,0.268-0.312,0.178-0.681,0.284
			c-0.359,0.103-2.354,0.834-2.668,0.567c-0.34-0.152-0.353-1.617-0.171-1.873c0.172-0.363,0.696-0.229,1.136-0.341
			c0.347-0.089,1.688-0.241,2.043-0.454c0.132,0.038,0.265,0.076,0.397,0.113C74.126,81.088,74.187,82.246,74.003,82.475z
			 M78.033,80.771h-0.17c-0.015,0.198-0.021,0.239-0.114,0.341c-0.172,0.428-2.037,1.014-2.213,0.909
			c-0.219-0.111-0.282-1.184-0.113-1.42c0.019-0.057,0.038-0.113,0.057-0.17c0.522-0.115,1.886-0.122,2.213-0.397
			c0.282,0.005,0.326,0.011,0.398,0.227C78.17,80.393,78.072,80.515,78.033,80.771z M8.874,80.723
			c-0.028-0.027-0.136-0.027-0.136-0.027c0,0.02-0.111,0.014-0.205-0.087c-0.02-0.01-0.204,0.049-0.381,0.05
			c-0.228,0.002-0.459-0.05-0.47-0.05c-0.1-0.086-1.004-0.021-1.249,0.114c-0.053-0.052-0.099-0.077-0.17-0.114
			c-0.062-0.151-0.04-0.261-0.04-0.312c0.033-0.19,0.207-0.311,0.207-0.311s0.187-0.411,0.23-0.796
			c0.209-0.056,0.36-0.068,0.572-0.092c0.466-0.188,0.69-0.226,0.839-0.3c0.209-0.14,0.318-0.195,0.348-0.231
			c-0.015-0.224-0.017-0.151,0-0.342c-0.376-0.165-0.883-0.388-1.079-0.113c-0.037,0.052-0.076,0.049-0.114,0.058
			c-0.224,0.016-0.373,0.083-0.51,0H6.603c-0.027-0.302-0.026-0.235-0.055-0.453c0-0.036-0.007-0.265-0.007-0.265
			s0.021-0.212,0.006-0.305c0.345-0.036,1.311-0.446,1.418-0.397c0.31-0.135,0.395-0.692,0.511-0.851
			c-0.072-0.146-0.059-0.125-0.227-0.171c-0.016-0.01-0.6,0.152-0.859,0.193c-0.082,0.052-0.155,0.082-0.251,0.126
			c-0.052-0.008-0.334,0.221-0.593,0.021c-0.057-0.018-0.114-0.037-0.17-0.056c0.005-0.306,0.052-0.364-0.057-0.455
			c0-0.019,0.013-0.091,0.051-0.072C6.312,75.1,6.288,75.2,6.149,74.876c-0.071-0.166,0.071-0.423,0-0.567
			c-0.019-0.038-0.038-0.076-0.057-0.113c-0.116,0.021-0.108,0.013-0.17,0.057c-0.389-0.003-0.316,0.058-0.538,0.157
			c0.037,0.097,0.011,0.055,0.058,0.112c-0.066-0.04-0.076,0.02-0.114,0c0.001,0.154-0.057,0.397-0.113,0.397
			c-0.015,0.27-0.21,0.806-0.17,0.908v0.057c0.017,0.12-0.03,0.223-0.03,0.223s-0.084,0.213-0.084,0.231
			c-0.05,0.116-0.12,0.109-0.119,0.313c-0.399,0.095-0.86,0.321-1.331,0.325c-0.052,0.039-0.097,0.061-0.163,0.083
			c-0.221,0.067-0.402,0.012-0.518,0.087c-0.15,0.064-0.066,0.137-0.171,0.284c0.089,0.085,0.28,0.12,0.321,0.26
			c0.598,0.106,1.035,0.058,1.353,0.095c0.042-0.062,0.335-0.074,0.406-0.095c0.194,0.014,0.247,0.046,0.341,0
			c0.257,0.054,0.226,0.36,0.228,0.681c-0.241,0.053-0.346,0.209-0.346,0.209S4.843,78.661,4.6,78.815
			c-0.362,0.089-0.618,0.086-0.741,0.18c-0.219,0.101-0.107,0.122-0.32,0.194c0.125,0.206,0.133,0.274,0.227,0.454
			c0.425,0.104,0.853,0.157,1.303-0.028c0.059,0.085,0.084,0.113,0.171,0.17c-0.036,0.26,0.073,0.544,0.001,0.777
			c-0.048,0.154-0.024,0.226-0.104,0.398c-0.282,0.022-0.541,0.123-0.709,0.119c-0.211-0.027-0.327-0.021-0.68,0.169
			c-0.214-0.007-0.769,0.083-1.027,0.297c0,0.021-0.088-0.065-0.203,0.027c-0.067,0.028-0.119,0.009-0.341,0
			c-0.244,0.111-0.496,0.29-0.567,0.341c-0.01,0.01-0.317,0.021-0.496,0.006c-0.039,0.044-0.088,0.016-0.126,0.06
			c-0.176-0.147-0.385,0.047-0.639,0.056v0.058H0.291c-0.035,0.242-0.015,0.322,0.183,0.446c-0.068,0.164-0.02,0.046-0.171,0.113
			c0.037,0.099,0.012,0.055,0.057,0.113c0.025,0.231,0.621,0.633,0.852,0.568c0.706-0.2,1.793-0.692,2.668-1.25
			c0.059,0.028,0.317,0.089,0.397,0.057c0.515-0.197,0.644-0.582,1.192-0.453c0.038-0.017,0.245-0.091,0.281-0.113
			c0.192-0.029,0.564,0.084,0.924-0.243c0.317-0.015,1.455-0.097,1.462-0.098c0.286-0.046,0.605,0.07,0.681,0.058
			c0.187-0.042,0.133-0.059,0.284-0.114c-0.019-0.233,0.009-0.259-0.113-0.397C8.915,80.691,8.874,80.741,8.874,80.723z
			 M34.734,83.372c-0.421-0.018-1.674-0.173-1.868-0.316c-0.224,0.015-0.207,0.01-0.229,0.053c0,0.02-0.001,0.039-0.001,0.057
			c-0.383-0.176-0.85,0.09-1.192,0.036c-0.484-0.074-0.865-0.131-1.304-0.079c-0.19,0.054-0.832,0.135-1.355,0.184
			c-0.475,0.092-0.619-0.108-0.619-0.108l-0.401-0.786c0,0-0.283-0.099-0.506-0.076c-0.018,0.466-0.053,0.422-0.013,0.736
			c-0.068,0.064-0.124,0.143-0.174,0.225c-0.335,0.069-0.397,0.082-0.854,0.156c-0.067-0.104-0.121-0.162-0.224-0.231
			c0.111-0.829,1.151-3.064,1.189-3.045c0.023-0.336,0.071-0.619,0.298-0.846c0.208-0.36,0.767-0.162,0.856-0.213
			c0.023-0.014,0.074-0.149,0.116-0.169c0.181,0.066,0.867-0.107,0.968-0.21c0.176,0.006,0.29,0.026,0.396,0.063
			c0.035,0.099,0.01,0.056,0.054,0.115c-0.014,0.402-0.928,1.52-1.106,1.626c-0.343,0.203-0.487,0.123-0.686,0.248
			c-0.181,0.145,0.055,0.206,0.108,0.311c0.209,0.004,0.438,0.048,0.567,0.067c0.365-0.124,0.671-0.158,1.026-0.268
			c0.292-0.237,0.53-0.339,0.826-0.402c0.016-0.198,0.17-0.28,0.207-0.261c0.034-0.059,0.412-0.56,0.58-0.671
			c0.076-0.018,0.148-0.097,0.148-0.126c0.021-0.095,0.121-0.115,0.142-0.21c0.099,0.141,0.901-0.445,1.036-0.834
			c0.05-0.057,0.184-0.271,0.128-0.362c-0.065-0.222-0.833-0.616-1.059-0.669c-0.426-0.101-0.881,0.24-1.208,0.334
			c-0.284,0.014-0.623,0.098-1.099,0.276c-0.593,0.089-0.72-0.023-1.063,0.152c-0.222,0.081-0.38,0.109-0.337-0.233
			c0.018-0.755,0.264-0.937,0.253-1.528c-0.006-0.357-0.174-0.559-0.27-0.8c0.096-0.324-0.017-0.489-0.156-0.797
			c-0.161-0.055-0.192-0.17-0.37-0.139c-0.07-0.13-0.156-0.09-0.191-0.269c-0.145,0.004-0.211,0.004-0.285,0.052
			c-0.332,0.332,0.205,1.477-0.032,1.816c-0.239,0.346-0.782,1.911-0.782,2.541c-0.251,0.039-0.23,0.081-0.391,0.137
			c-0.224,0.078-0.438-0.007-0.807,0.263c-0.202,0.028-0.455,0.062-0.732,0.155c-0.38,0.111-0.466,0.204-0.59,0.279
			c-0.283,0.165-0.486,0.053-0.627,0.158c-0.725-0.049-0.355-1.246-0.597-1.6c-0.044-0.194-0.025-0.146-0.166-0.23
			c0-0.019,0-0.038,0.001-0.057c-0.019,0-0.038-0.001-0.057-0.001c-0.169,0.251-0.718,1.339-0.705,1.351
			c0,0.02-0.001,0.037-0.001,0.056c-0.037-0.019-0.074-0.038-0.112-0.058c-0.081,0.642-0.346,0.76-0.534,1.354
			c-0.171,0.538-0.02,1.058-0.083,1.53c0.128,0.069,0.185,0.129,0.337,0.177c0,0,0.471,0.066,0.736,0.069
			c0.107-0.349,0.421-0.275,0.576-0.443c0.242-0.266,0.417-1.155,0.252-1.416c0.055-0.058,0.464-0.272,0.515-0.219
			c0,0,0.445-0.109,0.538-0.039c0.157-0.035,0.234,0.088,0.258-0.06c0.577-0.016,1.143-0.304,1.625-0.264c0-0.02,0-0.038,0-0.058
			c0.019,0.001,0.038,0.001,0.057,0.001c0.08,0.563-0.172,1.033-0.42,1.299c0.083,0.107-0.293,1.054-0.302,1.073
			c-0.089,0.18-0.268,0.411-0.237,0.563c-0.258,0.243-0.387,0.832-0.702,1.18c-0.537,0.069-1.928,0.509-2.194,0.368
			c-0.119,0.045-0.115,0.055-0.115,0.055c0,0.019-0.577,0.051-1.252,0.262c-0.262,0.082-0.749,0.089-1.366,0.204
			c-0.074,0.015,0.172,0.034,0.018,0.076c-0.131,0.035-0.33,0.04-0.383,0.053c-0.323,0.073-0.549,0.117-0.684,0.158
			c-0.221,0.067-0.445,0.051-0.627,0.16c-0.044,0.038-0.062,0.3,0.049,0.454c0.103,0.193,0.088,0.02,0.282,0.119
			c0.069,0.035,0.192,0.209,0.28,0.231c0.339,0.091,0.405-0.258,0.742-0.214c0.176,0.022-0.193-0.081,0.105-0.123
			c0.272-0.039,0.67,0.012,0.771-0.054c0.297-0.193,0.504-0.18,1.141-0.32c0.156-0.037,0.871-0.176,0.976-0.217
			c0-0.038,1.493-0.321,1.711-0.335c0.095,0.223,0.026,0.371,0.02,0.562c0.057,0.09,0.089,0.191,0.127,0.265
			c0.051,0.099-0.049,0.148-0.06,0.169c0.626,0.527,1.188,0.73,1.854,1.111c0.035,0.099,0.011,0.056,0.055,0.114
			c-0.026,0.816-0.753,0.697-0.816,1.361c-0.133,0.035-0.27,0.114-0.403,0.149c-0.039,0.039-0.021,0.133-0.06,0.17
			c-0.036,0.043-0.002,0.014-0.057-0.001c-0.163,0.055-0.219,0.327-0.407,0.504c-0.056-0.02-0.112-0.04-0.168-0.06
			c-0.149,0.083-0.331,0.248-0.517,0.332c-0.048-0.037-0.057-0.002-0.057-0.002c-0.019-0.001-0.038-0.001-0.057-0.001
			c-0.33,0.152-0.08,0.237,0.095,0.381c0.774-0.024,0.903-0.26,1.321-0.186c0.167-0.388,0.592-0.605,0.898-0.767
			c0.076,0.001,0.178-0.18,0.253-0.179c0.136-0.085,0.178-0.405,0.521-0.614c0.021-0.114,0.328-0.496,0.407-0.505
			c0.105-0.112,0.135-0.276,0.234-0.393c0.025-0.025,0.842,0.416,1.012,0.527c0.26,0.17,0.305,0.403,0.5,0.634
			c0.234,0.274,0.723,0.244,1.014,0.471c0.392,0.307,0.796,1.029,1.147,1.027c0.319-0.025,0.181-0.09,0.344-0.221
			c0.104-0.083,0.182,0.028,0.227,0.004c0.228-0.123,0.242-0.616,0.298-0.79c-0.752-0.752-1.652-1.254-2.44-1.787
			c-0.018-0.012-0.563,0.047-0.793-0.07c-0.312-0.158-0.5-0.334-0.958-0.414c-0.014-0.066,0.269-0.354,0.269-0.354
			s0.297-0.726,0.318-0.715c0.035-0.17,0.047-0.677,0.069-0.736c0.086-0.222,0.459-0.251,0.463-0.503
			c0.533-0.03,1.509-0.178,1.704-0.085c0,0,0.802-0.044,0.925-0.005c0.205,0.065,0.355-0.003,0.663,0.09
			c0.742,0.221,1.319,0.145,2.093,0.434c0.231-0.06,0.521-0.199,0.798-0.156c0.059-0.133,0.118-0.264,0.177-0.395
			c0.118-0.034,0.102-0.007,0.171-0.055c0.155-0.076,0.246-0.329,0.178-0.451C34.849,83.503,34.798,83.559,34.734,83.372z
			 M26.398,86.123c-0.065-0.004-1.22-0.504-1.404-0.876c-0.076-0.117-0.022-0.512,0.125-0.68c0.171-0.151,1.669-0.176,1.82-0.195
			c0.018,0.058,0.036,0.115,0.054,0.172C27.198,84.902,26.75,85.909,26.398,86.123z M14.799,80.183
			c-0.273-0.043-0.73,0.079-1.212,0.207c-0.236,0.02-0.462,0.136-0.796-0.064c-0.044-0.035-0.014-0.002,0-0.057
			c0.116-0.194,0.01-0.354,0.206-0.45c0.157-0.276,0.174-0.941,0.217-1.083c0.059-0.193,0.244-0.197,0.057-0.454
			c-0.038-0.057-0.075-0.112-0.114-0.17c-0.448,0.051-0.875,0.212-1.273-0.227c-0.039-0.045-0.074-0.127-0.114-0.171
			c0.062-0.209,0.542-0.519,0.738-0.567c0-0.057,0.154-0.119,0.154-0.176c0.267-0.184,0.246-0.414,0.246-0.414
			s0.296-0.109,0.434-0.287c0.1-0.504-0.162-0.796-0.323-1.166c-0.624,0.001-0.907,0.181-1.139,0.606
			c-0.066,0.045,0.021-0.001,0.057,0.057c0,0.02-0.091,0.475-0.653,0.562c-0.26,0.312-0.099,0.513-0.496,0.904
			c0,0.019-0.113,0.037-0.113,0.057c-0.129,0.054-0.102,0.21-0.284,0.34c0.073,0.147-0.026,0.11,0.114,0.228
			c-0.047,0.153-0.02-0.002-0.114,0.113c-0.482,0.204-0.544,0.94-0.724,1.316c0.092,0.103,0.047,0.105,0.118,0.243
			c0.74,0.003,1.077-0.137,1.528-0.483c0,0.019,0.095,0.136,0.095,0.154c0.017,0.043,0.312,0.196,0.397,0.341
			c0.128,0.215-0.037,0.533,0.089,0.739c-0.048,0.26-0.34,0.129-0.625,0.283c0-0.038-0.407,0.048-0.647,0.043
			c-0.046,0.211-0.256,0.206-0.423,0.512c-0.032,0.168-0.074,0.397-0.074,0.397v0.171c0,0-0.142,0.111,0,0.227
			c0.081,0.102,0.208,0.179,0.34,0.227c0.219,0.132,0.854-0.091,1.022-0.227c0.038,0,0.741-0.253,0.741-0.253
			s1.047-0.438,1.529-0.428c0.247,0.25,0.559,0.527,0.794,0.624c-0.166,0.6,0.106,1.732-0.227,2.271
			c-0.167,0.27-0.051,0.59-0.34,0.737c0.006,0.22,0.013,0.289,0.113,0.398c0.043,0.038,0.126,0.073,0.17,0.113
			c0.42-0.106,0.738-0.854,0.851-0.852c0.032-0.211,0.128-0.522,0.228-0.625c0.083-0.14,0.304-0.64,0.35-0.988
			c-0.169-0.651,0.079-0.7,0.217-1.168c0.031-0.106-0.121-0.645-0.113-0.795C15.472,80.754,15.025,80.33,14.799,80.183z
			 M64.411,77.61c-0.935-0.619-4.273-0.487-5.166-0.057c-0.496,0.239-0.804,0-1.135,0.283c-0.176,0.034-0.17,0.057-0.17,0.057v0.057
			c-0.784-0.175-1.76,0.775-2.327,0.341c-0.292,0.07,0.022,0.085-0.284,0.17c0.018,0.178,0.019,0.091,0,0.228
			c0.225,0.158,0.341,0.326,0.625,0.454c0.262,0.244,1.436-0.038,1.93-0.227c0.213-0.082,0.583-0.335,0.852-0.171
			c0.206,0.098,0.392,0.719,0.284,0.908c-0.155,0.403-0.717,0.209-1.022,0.454c-0.09,0.072-0.15,0.185-0.34,0.284
			c0.015,0.223,0.016,0.15,0,0.34c0.131,0.104,0.346,0.211,0.454,0.341c0.256-0.066,0.478-0.148,0.625-0.057
			c0.271,0.02,0.33,0.065,0.397,0.283c0.161,0.228,0.037,0.554,0.057,0.795c-0.071,0.077-0.08,0.101-0.113,0.228
			c-0.432,0.092-1.167,0.342-1.362,0.511c-0.551-0.06-0.978-0.911-1.022-1.306c-0.317-0.361-0.966-0.865-1.418-1.078
			c-0.019,0.037-0.038,0.074-0.057,0.113c-0.045,0.036-0.015,0.001,0,0.057v0.057c-0.126,0.012-0.05-0.053-0.114,0.057
			c-0.095,0.254,0.236,0.522,0.341,0.739c0.387,0.793,0.556,1.438,1.022,2.1c0.098,0.14,0.605,0.643,0.738,0.51
			c0.309-0.026,0.477-0.227,0.568-0.453c0.463-0.031,0.974-0.283,1.249-0.113c0.057,0.019,0.113,0.037,0.17,0.057
			c-0.007,0.396,0.047,1.027-0.113,1.248c-0.138,0.281-0.456,0.093-0.738,0.228c-0.486,0.233-1.548,1.022-2.271,0.908v0.057
			c-0.075,0.067-0.026,0.219,0,0.341c-0.088,0.051,0.092,0.123,0.171,0.17c0.175,0.214,2.246-0.534,2.611-0.511
			c0.044,0.01,0.037-0.018,0.113,0.113c0.245,0.336-0.06,1.32-0.17,1.646c-0.767,0.007-1.448,0.332-2.101,0.511
			c-0.207,0.057-0.5-0.02-0.567,0c-0.591,0.172-1.003,0.175-1.362,0.453c-0.169,0.113,0.018,0.112-0.17,0.171
			c0.299,0.338,0.934,0.777,1.589,0.567c0.209-0.066,0.488-0.24,0.852-0.17c0.334,0.064,2.069-0.579,2.668-0.794
			c0.198-0.072,0.445,0.031,0.567,0c0.108-0.03,0.333-0.189,0.454-0.228c0.801-0.256,1.733-0.23,2.271-0.17
			c0.607,0.066,1.137-0.146,1.419-0.114c0.019-0.057,0.038-0.113,0.057-0.171c-0.222-0.124-0.508-0.521-0.511-0.681
			c-0.396-0.1-0.896-0.301-1.25-0.397c-0.021-0.005-1.954,0.469-2.383,0.625c-0.052-0.052-0.099-0.076-0.169-0.113
			c-0.051-0.259,0.081-1.599,0.113-1.646v-0.227c0.273-0.061,0.39-0.144,0.625-0.229c0.153-0.054,0.319,0.046,0.397,0.057
			c0.522,0.072,1.058-0.225,1.249-0.51c0.136-0.213-0.112-0.571-0.114-0.738c-0.396-0.024-1.653,0.021-1.929,0.341
			c-0.131-0.018-0.142-0.026-0.228-0.058c-0.031-0.39-0.158-0.719,0.056-1.021c0.113-0.245,0.671-0.47,0.965-0.511
			c-0.003-0.176-0.02-0.292-0.057-0.397h0.057v-0.057c-0.287-0.08-0.593-0.193-0.965-0.228c-0.052-0.062,0.005-0.005-0.056-0.057
			c0-0.23,0.08-0.533,0-0.682c0.011-0.146,0.025-0.192,0.056-0.283c0.259-0.058,0.845-0.227,0.965-0.17
			c0.173-0.05,0.024-0.102,0.284-0.171c0.005-0.181,0.015-0.36,0-0.397c-0.079-0.473-0.717-0.715-1.192-0.794
			c-0.022-0.309-0.074-0.317,0-0.567c-0.151-0.097-0.329-0.216-0.397-0.397c-0.046-0.059-0.021-0.014-0.056-0.114
			c0.045-0.059,0.021-0.015,0.056-0.113c0.367-0.074,0.807-0.179,1.135-0.227c0.239-0.035,0.326,0.109,0.568,0.056
			c0.591-0.127,1.328-0.274,1.76,0.171c0.284,0.366-0.076,0.659-0.228,0.909c0.123,0.071-0.248,0.646-0.34,0.736
			c-0.304,0.298-0.468,0.751-0.795,1.021c-0.095,0.021-0.189,0.039-0.284,0.058c0.02,0.038,0.038,0.075,0.058,0.113
			c-0.106,0.225-0.493,0.537-0.739,0.625c0.011,0.146,0.026,0.192,0.057,0.283c0.807,0.053,0.92-0.125,1.589-0.566
			c0.103-0.068,0.271-0.078,0.341-0.172c0.155-0.205,0.21-0.457,0.397-0.624c0.184-0.164,0.558-0.359,0.681-0.567
			c0.058-0.171,0.114-0.34,0.171-0.511c0.108-0.116,0.335-0.118,0.454-0.228c0.238-0.218,0.275-0.675,0.34-0.908
			C64.865,78.263,64.655,77.771,64.411,77.61z M95.458,80.602c-0.704-0.176-2.38-0.353-3.065-0.454
			c-0.283,0.255-0.712,0.111-1.021,0.397c-0.044,0.035-0.014,0.001,0,0.057c0.039,0.699,0.611,0.906,1.078,1.191
			c0.113,0.133,0.228,0.266,0.341,0.398c0.113,0.019,0.227,0.037,0.341,0.057c0.08,0.037,0.162,0.197,0.228,0.227
			c0.918,0.423,2.276-0.841,2.724-1.191v-0.512C95.959,80.612,95.702,80.663,95.458,80.602z M87.285,83.27
			c1.079,0.386,1.717-1.027,1.93-1.646h-0.056c-0.369-0.349-0.934,0.178-1.307,0.057c-0.597-0.193-0.758-0.806-1.646-0.794
			c-0.069,0.141-0.141,0.229-0.228,0.341c0.259,0.426,0.216,1.165,0.568,1.646C86.708,83.094,86.995,83.165,87.285,83.27z
			 M48.076,80.27c-0.09-0.102-0.115-0.069-0.175-0.225c-0.658-0.003-0.714-0.145-1.368-0.255c-0.222-0.037-0.775,0.091-1.021,0.022
			c-0.157,0.256-0.686,0.044-1.02,0.135c-0.295,0.08-1.006,0.41-1.413,0.312c-0.009,0.114-0.053,0.015,0.003,0.114
			c0,0.019,0.001,0.038,0.001,0.057c-0.117-0.039-1.446-0.263-1.481-0.252c-0.122,0.037-0.227,0.12-0.281,0.119
			c-0.084,0.089-0.041,0.104-0.167,0.174c0.022,0.633,0.162,0.821,0.253,1.243c0.029,0.133,0,0.683,0.076,0.906
			c-0.084,0.063,0.361,0.515,0.58,0.556c0.26,0.111,0.527-0.097,0.793-0.072c0.176,0.016,0.494-0.036,0.849-0.132
			c0.323-0.088,0.418,0.085,0.57,0.102c0.017,0.001,1.592-0.39,1.749-0.491c0.253-0.063,0.222-0.612,0.436-0.917
			c0.183-0.262,0.469-0.182,0.673-0.412c-0.027-0.032-0.133-0.257-0.178-0.394c0.227-0.171,1.057-0.476,1.068-0.478
			C48.056,80.285,48.031,80.328,48.076,80.27z M45.613,81.967c-1.012,0.284-2.169,0.574-2.891,0.174
			c-0.086-0.304-0.182-0.444-0.19-0.903c0.066-0.065,0.119-0.147,0.166-0.23c0.691-0.295,1.645-0.312,2.259-0.559
			c0.086,0.019,0.374,0.019,0.51-0.068c0.118,0.022,0.26,0.049,0.343,0.107C46.194,80.92,45.731,81.546,45.613,81.967z
			 M93.359,86.505c-0.068-0.073-0.217-0.098-0.284-0.171c-0.202-0.217-0.245-0.586-0.454-0.794
			c-0.141-0.141-0.408-0.164-0.568-0.284c-0.132-0.188-0.265-0.377-0.396-0.567c-0.382-0.305-0.68-0.831-1.079-1.078
			c-0.278-0.172-0.544-0.283-0.794-0.454c-0.02,0.038-0.038,0.075-0.058,0.113h0.058v0.057c-0.038-0.019-0.076-0.038-0.114-0.057
			c-0.036-0.098-0.011-0.056-0.057-0.113v0.113c-0.069,0.177,0.217,0.57,0.341,0.794c0.158,0.288,0.528,0.423,0.681,0.682
			c0.08,0.136,0.023,0.282,0.114,0.397c0.086,0.109,0.266,0.215,0.341,0.341c0.224,0.379,0.229,0.876,0.511,1.191
			c-0.03,0.623-0.467,0.627-1.022,0.738c-0.367,0.074-1.104,0.123-1.873-0.283c-0.731-0.388-1.257-0.914-1.815-1.59
			c-0.184-0.222-0.485-0.357-0.682-0.567c-0.767-0.821-1.006-1.961-2.271-2.327c-0.006,0.157,0.065,0.12-0.17,0.17
			c0.233,0.67,0.771,1.35,1.191,1.986c0.212,0.32,0.253,0.687,0.454,1.022c0.079,0.132,0.297,0.225,0.397,0.34
			c0.113,0.131,0.115,0.318,0.228,0.454c0.396,0.482,1.02,0.942,1.589,1.249c0.318,0.171,1.367,0.737,1.816,0.681
			c0.386-0.049,0.837-0.076,1.191-0.057c1.054,0.058,2.296-0.364,3.122-1.191c-0.068-0.092-0.015-0.104,0-0.285
			C93.6,86.86,93.506,86.669,93.359,86.505z M7.559,82.84c-0.154-0.398,0.097-0.65-0.056-0.853v-0.112
			c-0.423,0.006-0.294,0.039-0.501,0.152c-0.427-0.172-0.933-0.009-1.554,0.205c-0.32,0.11-0.548,0.306-0.666,0.377
			c-0.227,0.14-0.438-0.085-0.627,0.01c-0.229,0.116-0.033,0.162-0.341,0.171c0.359,0.67-0.68,1.602-0.511,2.327v0.057
			C3.03,85.4,3.2,85.415,3.089,85.791c-0.085,0.292-0.581,2.183-0.239,2.618c0.192,0.146,0.194,0.082,0.348,0.203
			c0.15-0.161,0.714-0.903,0.682-1.028c0.118,0.029,0.148-0.075,0.34,0.006c0.488,0.223,0.459,0.086,0.857,0.288
			c0.038,0.076,0.126,0.091,0.165,0.166c0.095,0.063,0.323,0.092,0.402,0.135c-0.186,0.423-0.345,0.482-0.511,0.908
			c-0.092,0.064-0.031,0.005,0,0.114c-0.057,0.018-0.113,0.037-0.17,0.057c0.008,0.162,0.041,0.082,0,0.17
			c0.127,0.506,0.854,0.741,1.348,0.903c0.47-0.159,0.53-0.699,0.567-0.681c-0.008-0.163-0.04-0.083,0-0.17
			c0.04-0.066,0.087-0.081,0.154-0.062c-0.01-0.516,0.142-0.535,0.199-1c0.05-0.047,0.081-0.109,0.116-0.14
			c0.02-0.343,0.163-1.328,0.32-1.802c0.071-0.213,0.108-0.887,0.108-0.887s-0.092-0.253-0.103-0.253
			C7.828,84.878,7.726,83.27,7.559,82.84z M6.301,87.198c-0.019,0-0.077,0.038-0.096,0.038c-0.066-0.02-0.256-0.076-0.44-0.186
			c-0.116,0.017-0.229,0.015-0.251,0c-0.421,0.015-1.225-0.126-1.407-0.198v-0.057c-0.038-0.208,0.047-0.277,0.057-0.454
			c0.205-0.355,0.353-0.547,0.442-0.791c0.178,0.056,0.59,0.124,0.693,0.11h0.057c-0.02,0.038,0.632,0.045,0.794,0.169
			c0.125,0.084,0.18,0.187,0.284,0.285C6.406,86.498,6.386,86.808,6.301,87.198z M6.83,83.958c-0.268,0.63-1.37,0.538-1.703,0.851
			c-0.266,0.056-0.467-0.126-0.624-0.113c-0.02-0.434,0.175-0.926,0.227-1.136c0.118-0.078,0.473-0.232,0.65-0.271
			c0-0.057,0.208-0.061,0.208-0.118c0.333-0.068,0.284-0.116,0.487-0.214c0.221-0.022,0.335,0.034,0.488,0.015
			c0.155,0.11,0.17,0.155,0.267,0.306C6.8,83.464,6.888,83.637,6.83,83.958z M44.766,84.824c0.602,0.092,2.211-0.1,3.228-0.353
			c0.266,0.014,0.531,0.026,0.795,0.04c0.578-0.059,0.892-0.107,1.301-0.255c0.052,0.011,0.197,0.075,0.228,0.053
			c0.323-0.225,0.567-0.478,0.778-0.755c0.02-0.001,0.038-0.001,0.057-0.001c0-0.02,0-0.037-0.001-0.058
			c-0.038-0.017-0.077-0.034-0.115-0.054c-0.229-0.152-1.199,0.129-1.817-0.018c-0.133-0.033-0.315-0.173-0.57-0.102
			c-0.183,0.051-0.519,0.217-0.563,0.238c-0.227,0.11-0.65,0.047-0.795-0.039c-0.224-0.074-0.371-0.298-0.409-0.561
			c-0.13,0.027-0.56-0.115-0.685-0.155c-0.117,0.197-0.254,0.649-0.324,0.744c0.073,0.168,0.257,0.253,0.404,0.333
			c0.001,0.057,0.002,0.112,0.003,0.17c-0.94,0.025-1.67,0.039-2.551,0.167c-0.359,0.052-0.569,0.281-0.849,0.132
			c-0.191-0.07-0.346-0.309-0.408-0.502c-0.352-0.027-0.706-0.178-0.854-0.097c-0.384,0.031-0.146,0.087-0.451,0.18
			c0.074,0.233-0.036,0.355,0.125,0.565c-0.022,0.233-0.011,0.194-0.165,0.287c-0.056,0.048-0.89,0.241-1.128,0.308
			c-0.811,0.228-2.132,0.232-3.225,0.579c-0.067,0.018-0.092,0.115-0.225,0.119c0.095,0.604,0.099,0.364,0.751,0.607
			c0.628,0.235,1.362,0.46,1.878,0.244c0.587-0.242,1.89-1.21,2.364-0.957c0.038-0.001,0.076-0.002,0.113-0.003
			c0.068,0.731-0.291,0.95-0.767,1.322c0.019,0,0.038-0.001,0.057-0.001c0,0.02,0,0.037,0.001,0.057
			c-0.215-0.067-0.623-0.092-0.848,0.131c-0.117,0.049-0.113,0.06-0.113,0.06c0,0.019,0.001,0.038,0.001,0.056
			c-0.151,0.016-0.066,0.007-0.225,0.119c0.022,0.177,0.021,0.09,0.005,0.228c0.221,0.114,0.49,0.223,0.744,0.324
			c-0.051,0.268-0.098,0.54-0.323,0.803c-0.12,0.138-0.318,0.213-0.389,0.405c-0.071,0.19,0.022,0.495,0.012,0.566
			c1.373-0.027,1.453-1.082,2.058-2.03c0.095-0.149,0.184-0.374,0.331-0.46c0.329-0.194,0.692-0.14,0.904-0.19
			c0.086,0.112,0.231,0.252,0.348,0.333c0.001,0.379-0.113,0.736-0.265,0.915c0.065,0.085-0.007,0.375-0.046,0.512
			c-0.185,0.649-0.609,1.098-1.283,1.049c-0.019,0.038-0.037,0.076-0.055,0.114c0.019,0,0.038,0,0.057-0.001
			c0,0.019,0,0.037,0.001,0.057c-0.039-0.019-0.077-0.037-0.115-0.054c0.078,0.475,0.584,0.701,0.982,0.831
			c0.162-0.043,0.475-0.119,0.567-0.069c0.211-0.052,0.396-0.199,0.504-0.352c0.157-0.094,0.137-0.511,0.209-0.856
			c0.113-0.542,0.511-0.646,0.367-1.425c-0.117-0.021-0.109-0.013-0.171-0.055c-0.015-0.062,0.518-0.867,0.658-1.092
			c0-0.073,0.038-0.029-0.059-0.113c0-0.019-0.001-0.038-0.001-0.058c0.038,0.02,0.076,0.037,0.114,0.056
			c-0.025-0.116-0.016-0.109-0.06-0.17c-0.069-0.158-0.01-0.105-0.174-0.166c-0.189-0.086-0.535,0.12-0.85,0.074
			c-0.033-0.004-0.938-0.135-1.136-0.032c-0.02,0.001-0.038,0.001-0.057,0.001c0.036-0.166-0.024-0.464,0.157-0.628
			c-0.041-0.191-0.107-0.174-0.29-0.277c-0.001-0.076-0.003-0.151-0.004-0.227c0.414-0.019,0.417-0.186,0.674-0.299
			C43.293,85.092,44.536,84.789,44.766,84.824z M82.915,85.653c-0.083,0.216-0.062,0.054-0.227,0.171
			c0.069,0.042-0.062,0.524-0.114,0.681c-0.09,0.264-0.453,1.071-0.738,1.306c0.134,0.487,0.313,1.256,0.738,1.646
			c0.167,0.154,0.412,0.113,0.625,0.228c0,0,0.334-0.079,0.396-0.057c0.164-0.198,0.187-0.471,0.397-0.625
			c0.006-0.97-0.195-0.853-0.397-1.418C83.29,86.729,83.476,86.186,82.915,85.653z M49.502,85.973
			c-0.34,0.067-0.519-0.175-0.741-0.097c-0.426,0.146-1.498,0.32-2.156,0.045c-0.082,0.062-0.279,0.099-0.395,0.121
			c0.066,0.17,0.202,0.475,0.13,0.792c-0.014,0.062-0.137,0.178-0.107,0.286c0.023,0.087,0.149,0.137,0.175,0.224
			c0.038,0.127-0.083,0.384-0.046,0.512c0.053,0.185,0.268,0.266,0.236,0.45c-0.013,0.076-0.173,0.252-0.219,0.345
			c0.185,0.174,0.399,0.445,0.636,0.554c1.053,0.485,3.007-0.155,3.5-0.925c0.271-0.422,0.217-1.728,0.701-1.774
			c-0.004-0.155-0.008-0.26-0.064-0.34C50.804,85.829,49.861,85.902,49.502,85.973z M49.366,87.623
			c0.004,0.344-0.057,0.417-0.157,0.627c-0.351,0.099-0.854,0.14-1.359,0.143c-0.081-0.083-0.188-0.162-0.289-0.222
			c0.021-0.566,0.098-1.295,0.25-1.595c0.7-0.031,1.333,0.014,1.6,0.534C49.457,87.162,49.486,87.455,49.366,87.623z M14.347,86.025
			c-0.054,0.221-0.079,0.356-0.19,0.379c0.001-0.018-0.286,0.162-0.252,0.222c-0.038-0.004-0.075-0.007-0.113-0.011
			c-0.138-0.129-0.21,0.048-0.333,0.097c-0.117,0.327-0.249,0.325-0.4,0.521c0.02,0.438,0.073,0.663,0.029,1.293
			c-0.066,0.321-0.206,0.54-0.194,0.635c-0.123,0.193-0.266,0.432-0.331,0.542c-0.089,0.082-0.469,0.323-0.613,0.518
			c-0.428-0.166-0.875-0.229-1.518-0.241c-0.091-0.314-0.222-0.413-0.457-0.665c0.024-0.299,0.024-0.509,0.058-0.68
			c0.208,0.011,0.24-0.085,0.458-0.018c0.001-0.019,0.132-0.059,0.134-0.077c0.153,0.062,0.219,0.217,0.37,0.176
			c0.08,0.077,0.229,0.163,0.327,0.22c0.166-0.085,0.283-0.257,0.413-0.213c0.001-0.02,0.087-0.072,0.089-0.091
			c0.169-0.234,0.131-0.498,0.133-0.519c0.032-0.269-0.012-0.28,0.019-0.705c-0.019-0.002-0.038-0.003-0.056-0.005
			c-0.102,0.045-0.989,0.082-1.146,0.075c-0.132-0.007-0.458-0.115-0.636-0.088c-0.181,0.027-0.47,0.192-0.589,0.234
			c-0.074,0.041-0.61,0.056-0.684,0c-0.241-0.094-0.31-0.303-0.419-0.434c0.221-0.251,0.137-0.399,0.073-0.661
			c0.071-0.143,0.309-0.314,0.309-0.314s0.303-0.059,0.295-0.089c0.019,0,0.037,0.002,0.056,0.004
			c0.183,0.118,0.362,0.055,0.44,0.074c0.407,0.104,0.587,0.079,0.807,0.167c0.208-0.01,0.5-0.019,0.501-0.037
			c0,0,0.093-0.017,0.131-0.013c0.137,0.078,0.452-0.091,0.792-0.137c0.001-0.019,0.003-0.037,0.005-0.057
			c0.053-0.229,0.012-0.499-0.009-0.758c0.028-0.112,0.056-0.224,0.084-0.335c-0.028-0.079-0.087-0.311-0.087-0.311
			s-0.166-0.023-0.346,0.045c-0.313,0.064-0.565,0.166-1.094,0.137c-0.05-0.081-0.1-0.161-0.15-0.241
			c0.071-0.043,0.068-0.041,0.123-0.104c-0.258-0.12-0.175-0.31-0.25-0.419c0.191-0.214,0.151-0.37,0.486-0.358
			c0.179-0.114,0.386-0.031,0.349-0.085c0.038,0.004,0.075,0.007,0.113,0.011c0.063-0.058,0.412-0.324,0.655-0.344
			c0.057-0.287-0.25-0.461-0.348-0.6c-0.034-0.109,0.07-0.156,0.071-0.165c0.135-0.007,0.265-0.078,0.388-0.16
			c0.089-0.062,0.368-0.053,0.512,0.023c0.253,0.16,0.435,0.377,0.486,0.597c0.027,0.117-0.059,0.208-0.029,0.339
			c0.497,0.001,0.789,0.287,1.276,0.393c0.001,0.25,0.005,0.188,0.023,0.401c-0.036-0.022-0.112-0.029-0.113-0.011
			c0.022,0.129-0.293,0.204-0.293,0.204s-0.621,0.081-0.721,0.337c-0.065,0.104-0.109,0.963-0.034,1.08
			c0.063,0.067,0.189,0.146,0.269,0.194c0.019,0.001,0.038,0.003,0.056,0.005c0.101-0.069,0.038-0.104,0.185-0.156
			C13.651,85.904,13.94,85.978,14.347,86.025z"/>
	</g>
	<g>
		<polygon fill="#631B4B" points="107.91,-0.768 101.785,2.768 95.662,-0.768 101.785,-4.304 		"/>
		<polygon fill="#946E8D" points="107.91,-0.768 107.91,5.624 101.785,9.16 101.785,2.768 		"/>
		<polygon fill="#F05C22" points="120.157,-0.768 120.157,5.624 114.033,9.16 114.033,2.768 		"/>
		<polygon fill="#FAAD54" points="107.91,-0.768 114.033,2.768 114.033,9.16 107.91,5.624 		"/>
		<polygon fill="#8ED1C4" points="107.91,-0.768 107.91,-7.161 114.033,-10.696 114.033,-4.304 		"/>
		<polygon fill="#00B0AF" points="107.91,-0.768 101.785,-4.304 101.785,-10.696 107.91,-7.161 		"/>
	</g>
</g>
</svg>
