<?xml version="1.0" encoding="utf-8"?>
<!-- Generator: Adobe Illustrator 16.0.0, SVG Export Plug-In . SVG Version: 6.00 Build 0)  -->
<!DOCTYPE svg PUBLIC "-//W3C//DTD SVG 1.1//EN" "http://www.w3.org/Graphics/SVG/1.1/DTD/svg11.dtd">
<svg version="1.1" id="Layer_1" xmlns="http://www.w3.org/2000/svg" xmlns:xlink="http://www.w3.org/1999/xlink" x="0px" y="0px"
	 width="121.667px" height="106px" viewBox="0 0 121.667 106" enable-background="new 0 0 121.667 106" xml:space="preserve">
<g>
	<g>
		<g>
			<g>
				<g>
					<path fill="#FFFFFF" d="M7.743,59.449H4.418L4.431,42.87h-2.55v-0.648h5.851L7.73,42.871L7.743,59.449z M15.096,59.449
						L8.013,50.5l7.166-7.629l0.582-0.649h2.947v0.649H16.21l-5.647,5.903l8.229,10.028h1.185v0.646H15.096z"/>
					<path fill="#FFFFFF" d="M27.768,42.871v7.398c2.475,0,3.792-0.393,3.917-3.147h0.723v7.19h-0.723
						c-0.232-2.859-1.13-3.479-3.917-3.398v7.889h3.661c3.349,0,4.073-1.987,4.614-4.898h0.749l-0.231,5.545H24.44l0.03-16.579
						h-2.576v-0.648h14.252l0.155,4.649h-0.719c-0.543-2.479-1.527-3.436-2.841-3.795c-0.645-0.179-1.391-0.205-2.24-0.205H27.768z"
						/>
					<path fill="#FFFFFF" d="M46.526,59.449h-3.337l0.009-16.579h-2.552v-0.648h8.63c2.816,0,6.165,0.339,6.165,3.921
						c0,2.914-3.07,3.919-5.466,4.179v0.05c4.024,0.623,4.924,2.784,4.924,6.99c0,0.899,0.078,1.934,2.558,1.464v0.625
						c-0.728,0.172-1.448,0.305-2.194,0.305c-2.604,0-3.975-1.313-3.975-3.945c0-2.136-0.356-3.734-1.025-4.307
						c-0.724-0.612-1.548-0.922-2.346-0.922h-1.42L46.526,59.449z M46.495,49.931h2.117c2.319,0,3.271-1.104,3.271-3.427
						c0-2.882-0.85-3.633-3.146-3.633h-2.243L46.495,49.931L46.495,49.931z"/>
					<path fill="#FFFFFF" d="M65.175,59.449h-3.398l0.031-16.579h-2.55v-0.648h8.633c2.812,0,6.163,0.339,6.163,3.921
						c0,2.914-3.071,3.919-5.468,4.179v0.05c4.021,0.623,4.924,2.784,4.924,6.99c0,0.899,0.082,1.934,2.552,1.464v0.625
						c-0.718,0.172-1.44,0.305-2.188,0.305c-2.604,0-3.971-1.313-3.971-3.945c0-2.136-0.359-3.734-1.031-4.307
						c-0.719-0.612-1.549-0.922-2.346-0.922H65.11L65.175,59.449z M65.11,49.931h2.113c2.318,0,3.273-1.104,3.273-3.427
						c0-2.882-0.852-3.633-3.148-3.633H65.11V49.931z"/>
					<polygon fill="#FFFFFF" points="84.165,59.449 84.213,51.638 78.797,42.871 76.919,42.871 76.919,42.222 82.284,42.222 
						82.644,42.871 87.048,50.27 91.405,42.222 92.374,42.222 87.512,51.072 87.512,58.803 87.526,58.803 87.526,59.449 					"/>
					<polygon fill="#FFFFFF" points="16.855,37.395 13.521,37.395 13.522,20.248 10.938,20.248 10.938,19.598 16.881,19.598 					
						"/>
					<polygon fill="#FFFFFF" points="35.542,37.376 34.758,37.376 23.693,20.772 23.693,37.395 22.831,37.395 22.86,20.251 
						20.301,20.251 20.301,19.598 26.976,19.598 34.702,31.003 34.702,20.251 34.702,19.598 35.566,19.598 					"/>
					<path fill="#FFFFFF" d="M52.269,24.505c-0.546-2.319-2.113-4.646-4.937-4.646c-4.854,0-4.619,4.461-4.619,8.303
						c0,3.447-0.494,8.609,4.281,8.609c3.626,0,3.211-2.735,3.211-5.428h-2.636v-0.651h6.343v0.651
						c-0.056,3.838-2.923,6.085-6.627,6.085c-2.954,0-4.678-0.995-6.554-3.234c-1.359-1.625-1.855-3.792-1.855-5.852
						c0-2.402,0.887-4.519,2.429-6.37c1.508-1.801,3.337-2.768,5.716-2.768c1.823,0,2.973,0.42,4.383,1.357l1.044-1.096h0.578v5.037
						L52.269,24.505L52.269,24.505z"/>
					<path fill="#FFFFFF" d="M62.2,37.395l0.364-1.015l6.238-17.174h0.888l6.119,17.535h2.086v0.653H72.55l-0.215-0.653
						l-0.138-0.361l-1.594-4.619h-5.638l-1.619,4.619h0.011l-0.377,1.015H62.2z M65.258,31.111h5.085l-2.449-7.286L65.258,31.111z"
						/>
					<polygon fill="#FFFFFF" points="92.085,37.376 91.298,37.376 80.237,20.772 80.258,37.395 79.393,37.395 79.396,20.251 
						76.839,20.251 76.839,19.598 83.521,19.598 91.249,31.003 91.249,20.251 91.237,20.251 91.237,19.598 92.085,19.598 
						92.085,20.251 					"/>
					<path fill="#FFFFFF" d="M7.867,20.248v-0.65H1.73v0.65h2.794v16.06c0,1.172-0.316,2.349-1.724,2.349
						c-0.208,0-0.729-0.021-1.082-0.179l-0.199,0.307c0.174,0.272,0.568,0.427,1.252,0.521c2.067,0.298,3.786-1.2,4.648-3.026
						c0.629-1.333,0.447-3.764,0.447-5.275L7.867,20.248L7.867,20.248z"/>
					<path fill="#FFFFFF" d="M15.547,76.438v5.233h-0.562l-1.048-1.223c-1.147,0.993-2.86,1.452-4.366,1.452
						c-4.493,0-7.887-4.568-7.887-8.805c0-3.322,1.762-6.467,4.62-8.172c1.021-0.587,2.298-0.845,3.473-0.845
						c1.431,0,2.835,0.409,3.955,1.327l1.024-1.069h0.562v4.925h-0.739c-0.384-2.776-2.327-4.544-4.827-4.544
						c-1.633,0-2.478,0.357-3.371,1.734c-1.199,1.84-0.944,4.803-0.944,6.872c0,1.457-0.052,3.445,0.435,5.104
						c0.484,1.637,1.685,2.735,3.622,2.838c3.143,0.154,4.596-2.069,5.334-4.83h0.719V76.438z"/>
					<path fill="#FFFFFF" d="M22.269,65.142v7.334c2.452,0,3.75-0.386,3.879-3.115h0.714v7.121h-0.714
						c-0.229-2.834-1.123-3.446-3.879-3.367v7.807h3.625c3.318,0,4.033-1.965,4.568-4.848h0.74l-0.23,5.791H18.967l0.031-16.723
						h-2.551v-0.635h14.116l0.158,4.598h-0.72c-0.533-2.452-1.504-3.399-2.806-3.754c-0.637-0.178-1.381-0.209-2.222-0.209H22.269z"
						/>
					<polygon fill="#FFFFFF" points="46.531,81.854 45.766,81.854 34.941,65.617 34.941,81.828 34.125,81.828 34.125,65.101 
						31.62,65.101 31.62,64.465 38.156,64.465 45.714,75.624 45.714,64.484 46.531,64.484 					"/>
					<path fill="#FFFFFF" d="M53.559,81.828V65.101c-3.601-0.174-4.7,1.563-5.16,4.834h-0.814l0.278-5.47h14.631l0.281,5.47h-0.793
						c-0.458-3.271-1.557-5.008-5.16-4.834v16.729L53.559,81.828L53.559,81.828z"/>
					<path fill="#FFFFFF" d="M84.87,65.101v7.334c2.449,0,3.752-0.385,3.879-3.115h0.715v7.119h-0.715
						c-0.227-2.827-1.123-3.441-3.879-3.366v7.811h3.625c3.32,0,4.037-1.962,4.572-4.849h0.738l-0.232,5.795H81.602V65.101h-2.555
						v-0.636h14.119l0.154,4.599h-0.713c-0.537-2.455-1.51-3.396-2.812-3.757c-0.64-0.179-1.378-0.206-2.22-0.206H84.87z"/>
					<path fill="#FFFFFF" d="M69.526,81.828h-3.269V65.101h-2.53v-0.636h8.557c2.779,0,6.102,0.332,6.102,3.88
						c0,2.887-3.038,3.883-5.417,4.142v0.05c3.985,0.611,4.877,2.761,4.877,6.918c0,0.896,0.082,1.915,2.53,1.455v0.611
						c-0.715,0.181-1.43,0.309-2.174,0.309c-2.576,0-3.928-1.303-3.928-3.905c0-2.122-0.359-3.704-1.023-4.263
						c-0.715-0.614-1.528-0.92-2.324-0.92h-1.4V81.828L69.526,81.828z M69.526,72.103h2.092c2.297,0,3.24-1.101,3.24-3.396
						c0-2.86-0.844-3.606-3.113-3.606h-2.219V72.103z"/>
				</g>
			</g>
		</g>
		<path fill="#FFFFFF" d="M41.357,92.114c0.04-0.01,0.518-0.075,0.678-0.186c0.035-0.022,0.136-0.201,0.222-0.23
			c0.245-0.024,0.492-0.049,0.737-0.072c0.376-0.139,1.049-0.355,1.354-0.427c0.188-0.042,0.534,0.012,0.568-0.013
			c0.157-0.112,0.304-0.312,0.502-0.406c0.191,0.048,0.635-0.049,0.849-0.133c0.061,0.084,0.086,0.11,0.174,0.168
			c0.15,0.139,1.603-0.346,1.695-0.377c0.284-0.101,0.395,0.002,0.51-0.067c0.096-0.026,0.115-0.076,0.223-0.176
			c0.019,0,0.038-0.001,0.057-0.001c0.111-0.034-0.115-0.055-0.115-0.055c-0.271-0.518-2.437-0.013-2.783-0.056
			c-0.266-0.032-0.676,0.093-0.852-0.038c-0.284-0.211,0.042-0.419-0.016-0.738c-0.025-0.139,0.165-0.397,0.272-0.574
			c0.264-0.022,0.528-0.047,0.793-0.072c0.077-0.037,0.161-0.21,0.279-0.232c0.098-0.018,0.872,0.029,1.078-0.021
			c0.204-0.051,0.241-0.199,0.45-0.18c-0.011-0.172-0.045-0.158-0.005-0.228c-0.124-0.272-1.454-0.03-1.589,0.033
			c-0.303,0.006-0.605,0.013-0.908,0.019c-0.062-0.064-0.116-0.09-0.174-0.166c-0.062-0.095-0.041-0.187,0.051-0.285
			c0-0.832-1.025-1.06-1.387-1.162c-0.303,0.252-0.566,0.998-0.141,1.422c-0.039,0.396-0.176,0.324-0.27,0.688
			c-0.583,0.126-1.273,0.174-1.754,0.264c-0.262,0.051-0.372-0.191-0.625-0.043c-0.31,0.074-0.185,0.17-0.392,0.293
			c0.026,0.371,0.181,0.539,0.131,0.791c0.482-0.029,0.671-0.231,0.96-0.248c0.068-0.002,0.269,0.057,0.454-0.008
			c0.259-0.092,0.741-0.41,1.016-0.307c0.076-0.001,0.152-0.003,0.227-0.005c0.077,0.297,0.219,0.706,0.133,0.905
			c-0.064,0.207-0.169,0.252-0.276,0.402c-0.693,0.032-1.264,0.278-1.807,0.438c-0.61,0.177-1.117-0.006-1.527,0.314
			c-0.34,0.047-0.069,0.072-0.337,0.178C39.802,92.011,40.586,92.315,41.357,92.114z M78.592,91.328
			c-0.298,0.052-0.827-0.026-1.078-0.058c-0.416-0.049-1.148,0.39-1.477,0.17c-0.092-0.047-0.198-0.613-0.113-0.965
			c0.043-0.176-0.085-0.573,0.057-0.965c0.061-0.16,0.244-0.263,0.342-0.396c0.06-0.068,0.013-0.051,0.057-0.172
			c-0.092-0.098-0.086-0.223-0.17-0.34c-0.038-0.054-0.951-0.604-1.021-0.623c-0.156-0.047-0.359,0.049-0.566,0
			c-0.086,0.139-0.031,0.123-0.229,0.168c0.111,0.479,0.256,0.691,0.396,1.08c0.129,0.353-0.159,0.865-0.17,1.078
			c-0.025,0.523,0.322,0.933,0.058,1.307c-0.204,0.449-0.937,0.236-1.419,0.396c-0.626,0.209-2.042,0.506-2.838,0.682
			c-0.376,0.082-1.047-0.215-1.079-0.284c-0.104,0.118-0.05,0.157-0.228,0.227c0.264,0.646,0.271,1.365,0.567,1.987
			c0.127,0.268,0.431,0.572,0.567,0.852c0.058,0.303,0.113,0.604,0.171,0.907c0.021,0.146,0.213,0.248,0.397,0.397
			c0.662,0.537,1.223,0.031,1.93-0.229c0.265-0.056,0.529-0.113,0.793-0.17c0.188-0.07,0.658-0.303,0.796-0.227
			c0.851,0.106-0.013,1.599,0.284,2.669c0.019,0.067,0.131,0.233,0.113,0.339c-0.025,0.146-0.146,0.771-0.113,0.908
			c0.193,0.841,0.246,2.64,0.113,3.009c0.098,0.378,0.221,0.69,0.17,1.021c0.135,0.069,0.2,0.106,0.283,0.228
			c0.148-0.194,0.441-0.522,0.512-0.738v-0.851c0-0.415,0.041-0.814,0.112-1.077v-0.966c0.126-0.764-0.062-2.662,0.17-3.69
			c0.048-0.204-0.081-0.476,0-0.624c-0.014-0.658,0.134-0.646,0.397-0.965c0.49-0.016,2.014-0.218,2.385-0.454
			c0.908-0.017,0.863-1.08,1.191-1.702c0.293-0.558,0.75-0.594,0.965-1.306c-0.373-0.251-0.592-0.604-0.965-0.738
			C79.399,91.015,79.003,91.257,78.592,91.328z M74.62,94.847c-0.186,0.269-0.312,0.178-0.682,0.284
			c-0.359,0.103-2.354,0.834-2.668,0.567c-0.34-0.152-0.354-1.617-0.171-1.873c0.172-0.363,0.696-0.229,1.136-0.342
			c0.348-0.088,1.688-0.24,2.043-0.453c0.133,0.037,0.266,0.076,0.397,0.113C74.743,93.46,74.803,94.618,74.62,94.847z
			 M78.649,93.144h-0.17c-0.015,0.197-0.021,0.238-0.113,0.34c-0.172,0.429-2.037,1.015-2.213,0.91
			c-0.22-0.111-0.283-1.185-0.113-1.42c0.019-0.058,0.037-0.113,0.057-0.17c0.521-0.115,1.887-0.123,2.213-0.397
			c0.282,0.005,0.326,0.011,0.398,0.227C78.786,92.765,78.688,92.888,78.649,93.144z M9.49,93.095
			c-0.028-0.027-0.136-0.027-0.136-0.027c0,0.021-0.111,0.015-0.205-0.086c-0.02-0.01-0.204,0.049-0.381,0.05
			c-0.228,0.002-0.459-0.05-0.47-0.05c-0.1-0.086-1.004-0.021-1.249,0.113c-0.053-0.052-0.099-0.076-0.17-0.113
			c-0.062-0.151-0.04-0.262-0.04-0.312c0.033-0.189,0.207-0.311,0.207-0.311s0.187-0.411,0.23-0.797
			c0.209-0.056,0.36-0.067,0.572-0.092c0.466-0.188,0.69-0.226,0.839-0.3c0.209-0.14,0.318-0.194,0.348-0.231
			c-0.015-0.224-0.017-0.15,0-0.342c-0.376-0.164-0.883-0.388-1.079-0.113c-0.037,0.053-0.076,0.05-0.114,0.059
			c-0.224,0.016-0.373,0.083-0.51,0H7.219c-0.027-0.302-0.026-0.234-0.055-0.453c0-0.035-0.007-0.265-0.007-0.265
			s0.021-0.212,0.006-0.306c0.345-0.035,1.311-0.445,1.418-0.396c0.31-0.135,0.395-0.691,0.511-0.852
			c-0.072-0.146-0.059-0.125-0.227-0.17c-0.016-0.011-0.6,0.151-0.859,0.192c-0.082,0.052-0.155,0.082-0.251,0.126
			c-0.052-0.008-0.334,0.221-0.593,0.021c-0.057-0.019-0.114-0.037-0.17-0.057c0.005-0.306,0.052-0.363-0.057-0.455
			c0-0.019,0.013-0.091,0.051-0.072c-0.058-0.385-0.082-0.284-0.221-0.608c-0.071-0.166,0.071-0.423,0-0.567
			c-0.019-0.037-0.038-0.076-0.057-0.113c-0.116,0.021-0.108,0.014-0.17,0.058C6.149,86.622,6.222,86.683,6,86.782
			c0.037,0.097,0.011,0.055,0.058,0.111c-0.066-0.039-0.076,0.021-0.114,0c0.001,0.154-0.057,0.397-0.113,0.397
			c-0.015,0.271-0.21,0.806-0.17,0.908v0.057c0.017,0.12-0.03,0.224-0.03,0.224s-0.084,0.213-0.084,0.23
			c-0.05,0.116-0.12,0.109-0.119,0.312c-0.399,0.096-0.86,0.322-1.331,0.326C4.045,89.388,4,89.409,3.934,89.431
			c-0.221,0.067-0.402,0.012-0.518,0.088c-0.15,0.063-0.066,0.137-0.171,0.283c0.089,0.086,0.28,0.12,0.321,0.26
			c0.598,0.106,1.035,0.059,1.353,0.096c0.042-0.062,0.335-0.074,0.406-0.096c0.194,0.015,0.247,0.047,0.341,0
			c0.257,0.055,0.226,0.36,0.228,0.682c-0.241,0.053-0.346,0.209-0.346,0.209s-0.089,0.081-0.332,0.234
			c-0.362,0.09-0.618,0.086-0.741,0.181c-0.219,0.101-0.107,0.122-0.32,0.194c0.125,0.205,0.133,0.273,0.227,0.453
			c0.425,0.104,0.853,0.157,1.303-0.027c0.059,0.085,0.084,0.113,0.171,0.17c-0.036,0.26,0.073,0.544,0.001,0.777
			c-0.048,0.153-0.024,0.226-0.104,0.397c-0.282,0.022-0.541,0.123-0.709,0.119c-0.211-0.027-0.327-0.021-0.68,0.169
			c-0.214-0.007-0.769,0.083-1.027,0.297c0,0.021-0.088-0.064-0.203,0.027c-0.067,0.027-0.119,0.009-0.341,0
			c-0.244,0.111-0.496,0.289-0.567,0.341c-0.01,0.01-0.317,0.021-0.496,0.006c-0.039,0.044-0.088,0.017-0.126,0.06
			c-0.176-0.146-0.385,0.047-0.639,0.057v0.058H0.907c-0.035,0.242-0.015,0.322,0.183,0.446c-0.068,0.164-0.02,0.046-0.171,0.113
			c0.037,0.099,0.012,0.055,0.057,0.113c0.025,0.23,0.621,0.633,0.852,0.567c0.706-0.2,1.793-0.692,2.668-1.25
			c0.059,0.028,0.317,0.089,0.397,0.058c0.515-0.197,0.644-0.582,1.192-0.453c0.038-0.018,0.245-0.092,0.281-0.113
			c0.192-0.029,0.564,0.084,0.924-0.243c0.317-0.015,1.455-0.097,1.462-0.099c0.286-0.045,0.605,0.07,0.681,0.059
			c0.187-0.042,0.133-0.059,0.284-0.114c-0.019-0.233,0.009-0.259-0.113-0.396C9.531,93.063,9.49,93.113,9.49,93.095z M35.35,95.744
			c-0.421-0.019-1.674-0.173-1.868-0.315c-0.224,0.014-0.207,0.01-0.229,0.053c0,0.02-0.001,0.039-0.001,0.057
			c-0.383-0.176-0.85,0.09-1.192,0.036c-0.484-0.074-0.865-0.132-1.304-0.079c-0.19,0.054-0.832,0.135-1.355,0.184
			c-0.475,0.092-0.619-0.107-0.619-0.107l-0.401-0.786c0,0-0.283-0.099-0.506-0.076c-0.018,0.466-0.053,0.422-0.013,0.736
			c-0.068,0.063-0.124,0.143-0.174,0.225c-0.335,0.069-0.397,0.082-0.854,0.156c-0.067-0.104-0.121-0.162-0.224-0.231
			c0.111-0.828,1.151-3.063,1.189-3.045c0.023-0.336,0.071-0.619,0.298-0.846c0.208-0.359,0.767-0.162,0.856-0.213
			c0.023-0.014,0.074-0.149,0.116-0.169c0.181,0.065,0.867-0.107,0.968-0.21c0.176,0.006,0.29,0.025,0.396,0.062
			c0.035,0.1,0.01,0.057,0.054,0.115c-0.014,0.402-0.928,1.52-1.106,1.626c-0.343,0.203-0.487,0.123-0.686,0.248
			c-0.181,0.146,0.055,0.206,0.108,0.312c0.209,0.004,0.438,0.047,0.567,0.066c0.365-0.124,0.671-0.158,1.026-0.268
			c0.292-0.237,0.53-0.34,0.826-0.402c0.016-0.198,0.17-0.28,0.207-0.261c0.034-0.06,0.412-0.56,0.58-0.671
			c0.076-0.019,0.148-0.098,0.148-0.127c0.021-0.094,0.121-0.114,0.142-0.209c0.099,0.141,0.901-0.445,1.036-0.834
			c0.05-0.058,0.184-0.271,0.128-0.362c-0.065-0.222-0.833-0.616-1.059-0.669c-0.426-0.102-0.881,0.24-1.208,0.334
			c-0.284,0.014-0.623,0.098-1.099,0.275c-0.593,0.09-0.72-0.022-1.063,0.152c-0.222,0.081-0.38,0.109-0.337-0.232
			c0.018-0.756,0.264-0.938,0.253-1.528c-0.006-0.357-0.174-0.56-0.27-0.8c0.096-0.324-0.017-0.489-0.156-0.797
			c-0.161-0.056-0.192-0.17-0.37-0.14c-0.07-0.13-0.156-0.09-0.191-0.269c-0.145,0.004-0.211,0.004-0.285,0.052
			c-0.332,0.332,0.205,1.478-0.032,1.815c-0.239,0.347-0.782,1.912-0.782,2.541c-0.251,0.039-0.23,0.082-0.391,0.138
			c-0.224,0.077-0.438-0.007-0.807,0.263c-0.202,0.028-0.455,0.062-0.732,0.155c-0.38,0.11-0.466,0.204-0.59,0.278
			c-0.283,0.166-0.486,0.054-0.627,0.158c-0.725-0.049-0.355-1.246-0.597-1.6c-0.044-0.193-0.025-0.146-0.166-0.23
			c0-0.019,0-0.037,0.001-0.057c-0.019,0-0.038-0.001-0.057-0.001c-0.169,0.251-0.718,1.339-0.705,1.351
			c0,0.021-0.001,0.037-0.001,0.057c-0.037-0.02-0.074-0.038-0.112-0.059c-0.081,0.643-0.346,0.76-0.534,1.354
			c-0.171,0.538-0.02,1.058-0.083,1.53c0.128,0.068,0.185,0.129,0.337,0.177c0,0,0.471,0.065,0.736,0.069
			c0.107-0.35,0.421-0.275,0.576-0.443c0.242-0.266,0.417-1.155,0.252-1.416c0.055-0.059,0.464-0.271,0.515-0.219
			c0,0,0.445-0.109,0.538-0.039c0.157-0.035,0.234,0.088,0.258-0.061c0.577-0.016,1.143-0.304,1.625-0.264c0-0.02,0-0.038,0-0.059
			c0.019,0.002,0.038,0.002,0.057,0.002c0.08,0.562-0.172,1.033-0.42,1.299c0.083,0.107-0.293,1.054-0.302,1.072
			c-0.089,0.181-0.268,0.412-0.237,0.563c-0.258,0.243-0.387,0.832-0.702,1.181c-0.537,0.068-1.928,0.508-2.194,0.367
			c-0.119,0.045-0.115,0.055-0.115,0.055c0,0.02-0.577,0.051-1.252,0.263c-0.262,0.082-0.749,0.089-1.366,0.204
			c-0.074,0.015,0.172,0.033,0.018,0.076c-0.131,0.035-0.33,0.039-0.383,0.053c-0.323,0.072-0.549,0.117-0.684,0.158
			c-0.221,0.066-0.445,0.051-0.627,0.16c-0.044,0.037-0.062,0.299,0.049,0.453c0.103,0.193,0.088,0.021,0.282,0.119
			c0.069,0.035,0.192,0.209,0.28,0.23c0.339,0.092,0.405-0.258,0.742-0.213c0.176,0.021-0.193-0.082,0.105-0.123
			c0.272-0.039,0.67,0.012,0.771-0.055c0.297-0.193,0.504-0.18,1.141-0.32c0.156-0.036,0.871-0.176,0.976-0.217
			c0-0.037,1.493-0.32,1.711-0.334c0.095,0.223,0.026,0.371,0.02,0.562c0.057,0.09,0.089,0.19,0.127,0.265
			c0.051,0.1-0.049,0.148-0.06,0.17c0.626,0.526,1.188,0.729,1.854,1.11c0.035,0.099,0.011,0.056,0.055,0.114
			c-0.026,0.815-0.753,0.697-0.816,1.361c-0.133,0.034-0.27,0.113-0.403,0.148c-0.039,0.039-0.021,0.133-0.06,0.17
			c-0.036,0.043-0.002,0.014-0.057-0.001c-0.163,0.056-0.219,0.327-0.407,0.504c-0.056-0.021-0.112-0.04-0.168-0.06
			c-0.149,0.082-0.331,0.248-0.517,0.332c-0.048-0.037-0.057-0.002-0.057-0.002c-0.019-0.002-0.038-0.002-0.057-0.002
			c-0.33,0.152-0.08,0.237,0.095,0.381c0.774-0.023,0.903-0.26,1.321-0.186c0.167-0.388,0.592-0.605,0.898-0.767
			c0.076,0.001,0.178-0.181,0.253-0.179c0.136-0.086,0.178-0.405,0.521-0.614c0.021-0.114,0.328-0.496,0.407-0.505
			c0.105-0.112,0.135-0.276,0.234-0.394c0.025-0.024,0.842,0.416,1.012,0.527c0.26,0.17,0.305,0.403,0.5,0.634
			c0.234,0.273,0.723,0.244,1.014,0.471c0.392,0.308,0.796,1.029,1.147,1.027c0.319-0.025,0.181-0.09,0.344-0.221
			c0.104-0.083,0.182,0.027,0.227,0.004c0.228-0.123,0.242-0.616,0.298-0.79c-0.752-0.752-1.652-1.254-2.44-1.787
			c-0.018-0.013-0.563,0.047-0.793-0.069c-0.312-0.158-0.5-0.334-0.958-0.414c-0.014-0.066,0.269-0.354,0.269-0.354
			s0.297-0.726,0.318-0.715c0.035-0.171,0.047-0.677,0.069-0.736c0.086-0.222,0.459-0.251,0.463-0.503
			c0.533-0.03,1.509-0.178,1.704-0.085c0,0,0.802-0.044,0.925-0.005c0.205,0.064,0.355-0.003,0.663,0.09
			c0.742,0.221,1.319,0.145,2.093,0.434c0.231-0.06,0.521-0.199,0.798-0.156c0.059-0.133,0.118-0.264,0.177-0.395
			c0.118-0.033,0.102-0.007,0.171-0.055c0.155-0.076,0.246-0.329,0.178-0.451C35.465,95.875,35.414,95.931,35.35,95.744z
			 M27.014,98.495c-0.065-0.004-1.22-0.504-1.404-0.876c-0.076-0.117-0.022-0.513,0.125-0.681c0.171-0.15,1.669-0.176,1.82-0.194
			c0.018,0.058,0.036,0.114,0.054,0.172C27.814,97.274,27.366,98.281,27.014,98.495z M15.415,92.556
			c-0.273-0.043-0.73,0.078-1.212,0.207c-0.236,0.02-0.462,0.135-0.796-0.064c-0.044-0.035-0.014-0.002,0-0.057
			c0.116-0.194,0.01-0.354,0.206-0.451c0.157-0.275,0.174-0.94,0.217-1.082c0.059-0.193,0.244-0.197,0.057-0.454
			c-0.038-0.058-0.075-0.112-0.114-0.171c-0.448,0.052-0.875,0.213-1.273-0.227c-0.039-0.045-0.074-0.127-0.114-0.171
			c0.062-0.209,0.542-0.519,0.738-0.567c0-0.057,0.154-0.119,0.154-0.176c0.267-0.184,0.246-0.414,0.246-0.414
			s0.296-0.108,0.434-0.287c0.1-0.504-0.162-0.795-0.323-1.166c-0.624,0.002-0.907,0.182-1.139,0.606
			c-0.066,0.045,0.021-0.001,0.057,0.058c0,0.02-0.091,0.475-0.653,0.562c-0.26,0.312-0.099,0.513-0.496,0.903
			c0,0.02-0.113,0.037-0.113,0.058c-0.129,0.054-0.102,0.21-0.284,0.34c0.073,0.147-0.026,0.11,0.114,0.228
			c-0.047,0.153-0.02-0.002-0.114,0.113c-0.482,0.204-0.544,0.94-0.724,1.316c0.092,0.104,0.047,0.105,0.118,0.242
			c0.74,0.004,1.077-0.137,1.528-0.482c0,0.02,0.095,0.137,0.095,0.154c0.017,0.043,0.312,0.195,0.397,0.341
			c0.128,0.215-0.037,0.533,0.089,0.739c-0.048,0.26-0.34,0.129-0.625,0.283c0-0.039-0.407,0.047-0.647,0.043
			c-0.046,0.211-0.256,0.205-0.423,0.512c-0.032,0.168-0.074,0.396-0.074,0.396v0.172c0,0-0.142,0.11,0,0.227
			c0.081,0.102,0.208,0.179,0.34,0.227c0.219,0.133,0.854-0.091,1.022-0.227c0.038,0,0.741-0.253,0.741-0.253
			s1.047-0.438,1.529-0.429c0.247,0.25,0.559,0.527,0.794,0.625c-0.166,0.6,0.106,1.731-0.227,2.271
			c-0.167,0.271-0.051,0.59-0.34,0.737c0.006,0.22,0.013,0.289,0.113,0.398c0.043,0.037,0.126,0.072,0.17,0.112
			c0.42-0.106,0.738-0.854,0.851-0.853c0.032-0.211,0.128-0.521,0.228-0.625c0.083-0.14,0.304-0.64,0.35-0.987
			c-0.169-0.651,0.079-0.7,0.217-1.168c0.031-0.106-0.121-0.646-0.113-0.795C16.088,93.126,15.641,92.702,15.415,92.556z
			 M65.028,89.981c-0.936-0.618-4.273-0.486-5.167-0.057c-0.496,0.239-0.804,0-1.135,0.283c-0.176,0.034-0.17,0.057-0.17,0.057
			v0.058c-0.784-0.175-1.76,0.774-2.327,0.341c-0.292,0.07,0.022,0.085-0.284,0.17c0.018,0.178,0.019,0.091,0,0.229
			c0.225,0.158,0.341,0.326,0.625,0.453c0.262,0.244,1.436-0.037,1.93-0.227c0.213-0.082,0.583-0.335,0.852-0.171
			c0.206,0.098,0.392,0.719,0.284,0.907c-0.155,0.404-0.717,0.209-1.022,0.455c-0.09,0.072-0.15,0.185-0.34,0.283
			c0.015,0.224,0.016,0.15,0,0.34c0.131,0.104,0.346,0.211,0.454,0.342c0.256-0.066,0.478-0.148,0.625-0.057
			c0.271,0.02,0.33,0.064,0.397,0.282c0.161,0.228,0.037,0.554,0.057,0.795c-0.071,0.077-0.08,0.101-0.113,0.228
			c-0.432,0.093-1.167,0.343-1.362,0.512c-0.551-0.061-0.978-0.911-1.022-1.307c-0.317-0.36-0.966-0.864-1.418-1.077
			c-0.019,0.036-0.038,0.073-0.057,0.112c-0.045,0.037-0.015,0.002,0,0.058v0.057c-0.126,0.013-0.05-0.053-0.114,0.058
			c-0.095,0.254,0.236,0.521,0.341,0.738c0.387,0.793,0.556,1.438,1.022,2.1c0.098,0.141,0.605,0.644,0.738,0.511
			c0.309-0.026,0.477-0.228,0.568-0.453c0.463-0.03,0.974-0.283,1.249-0.112c0.057,0.019,0.113,0.036,0.17,0.057
			c-0.007,0.396,0.047,1.027-0.113,1.248c-0.138,0.281-0.456,0.093-0.738,0.228c-0.486,0.233-1.548,1.022-2.271,0.908v0.058
			c-0.075,0.066-0.026,0.219,0,0.34c-0.088,0.051,0.092,0.123,0.171,0.17c0.175,0.215,2.246-0.533,2.611-0.51
			c0.044,0.01,0.037-0.019,0.113,0.112c0.245,0.336-0.06,1.319-0.17,1.646c-0.767,0.008-1.448,0.332-2.101,0.512
			c-0.207,0.057-0.5-0.02-0.567,0c-0.591,0.172-1.003,0.175-1.362,0.453c-0.169,0.113,0.018,0.111-0.17,0.171
			c0.299,0.338,0.934,0.776,1.589,0.567c0.209-0.066,0.488-0.24,0.852-0.171c0.334,0.064,2.069-0.579,2.668-0.794
			c0.198-0.072,0.445,0.031,0.567,0c0.108-0.029,0.333-0.189,0.454-0.228c0.801-0.257,1.732-0.23,2.271-0.171
			c0.606,0.066,1.137-0.146,1.418-0.113c0.02-0.057,0.039-0.113,0.058-0.171c-0.222-0.124-0.509-0.521-0.511-0.681
			c-0.396-0.101-0.896-0.302-1.25-0.397c-0.021-0.005-1.954,0.469-2.383,0.625c-0.052-0.052-0.099-0.076-0.169-0.113
			c-0.051-0.259,0.081-1.599,0.113-1.646v-0.227c0.273-0.062,0.39-0.145,0.625-0.229c0.153-0.054,0.319,0.046,0.397,0.057
			c0.521,0.072,1.058-0.225,1.249-0.51c0.136-0.213-0.112-0.571-0.114-0.738c-0.396-0.024-1.653,0.021-1.929,0.341
			c-0.131-0.018-0.142-0.025-0.228-0.058c-0.031-0.39-0.158-0.719,0.056-1.021c0.113-0.246,0.671-0.471,0.965-0.512
			c-0.003-0.176-0.021-0.292-0.058-0.396h0.058v-0.057c-0.287-0.08-0.593-0.193-0.965-0.229c-0.052-0.062,0.005-0.005-0.056-0.057
			c0-0.23,0.08-0.533,0-0.683c0.011-0.146,0.025-0.192,0.056-0.282c0.259-0.059,0.845-0.228,0.965-0.171
			c0.172-0.05,0.023-0.102,0.283-0.171c0.006-0.181,0.016-0.359,0-0.396c-0.078-0.473-0.717-0.715-1.191-0.795
			c-0.022-0.309-0.074-0.316,0-0.566c-0.151-0.098-0.329-0.216-0.397-0.396c-0.046-0.06-0.021-0.015-0.056-0.114
			c0.045-0.06,0.021-0.015,0.056-0.113c0.367-0.074,0.808-0.179,1.136-0.228c0.238-0.034,0.326,0.109,0.567,0.057
			c0.591-0.127,1.328-0.273,1.761,0.171c0.283,0.366-0.076,0.659-0.229,0.909c0.123,0.07-0.248,0.646-0.34,0.736
			c-0.305,0.297-0.469,0.75-0.795,1.021c-0.096,0.021-0.189,0.039-0.284,0.058c0.021,0.039,0.038,0.075,0.058,0.113
			c-0.105,0.225-0.492,0.537-0.738,0.625c0.011,0.146,0.025,0.191,0.057,0.283c0.807,0.053,0.92-0.125,1.589-0.566
			c0.103-0.068,0.271-0.078,0.341-0.172c0.155-0.205,0.21-0.457,0.396-0.624c0.185-0.164,0.559-0.358,0.682-0.567
			c0.059-0.17,0.114-0.34,0.171-0.51c0.108-0.117,0.335-0.119,0.454-0.229c0.238-0.219,0.275-0.676,0.34-0.908
			C65.481,90.636,65.271,90.144,65.028,89.981z M96.075,92.974c-0.705-0.176-2.381-0.353-3.065-0.453
			c-0.283,0.254-0.712,0.11-1.021,0.396c-0.045,0.035-0.015,0.001,0,0.057c0.039,0.699,0.61,0.906,1.078,1.191
			c0.112,0.133,0.228,0.266,0.34,0.398c0.113,0.019,0.228,0.037,0.342,0.057c0.08,0.037,0.162,0.197,0.228,0.227
			c0.918,0.424,2.276-0.841,2.724-1.19v-0.513C96.575,92.983,96.319,93.035,96.075,92.974z M87.901,95.642
			c1.079,0.387,1.717-1.026,1.93-1.646h-0.055c-0.369-0.349-0.935,0.178-1.308,0.058c-0.597-0.193-0.758-0.807-1.646-0.795
			c-0.069,0.141-0.142,0.229-0.229,0.342c0.259,0.426,0.216,1.164,0.568,1.646C87.325,95.466,87.612,95.537,87.901,95.642z
			 M48.692,92.642c-0.09-0.102-0.115-0.068-0.175-0.225c-0.658-0.003-0.714-0.145-1.368-0.255c-0.222-0.037-0.775,0.091-1.021,0.022
			c-0.157,0.256-0.686,0.043-1.02,0.135c-0.295,0.08-1.006,0.41-1.413,0.312c-0.009,0.114-0.053,0.015,0.003,0.114
			c0,0.02,0.001,0.038,0.001,0.057c-0.117-0.039-1.446-0.263-1.481-0.252c-0.122,0.037-0.227,0.12-0.281,0.119
			c-0.084,0.089-0.041,0.104-0.167,0.174c0.022,0.633,0.162,0.821,0.253,1.243c0.029,0.134,0,0.683,0.076,0.906
			c-0.084,0.063,0.361,0.515,0.58,0.556c0.26,0.111,0.527-0.097,0.793-0.072c0.176,0.017,0.494-0.035,0.849-0.131
			c0.323-0.089,0.418,0.084,0.57,0.102c0.017,0.001,1.592-0.391,1.749-0.491c0.253-0.063,0.222-0.612,0.436-0.917
			c0.183-0.262,0.469-0.182,0.673-0.412c-0.027-0.031-0.133-0.257-0.178-0.395c0.227-0.17,1.057-0.476,1.068-0.478
			C48.672,92.657,48.647,92.7,48.692,92.642z M46.229,94.339c-1.012,0.284-2.169,0.574-2.891,0.174
			c-0.086-0.304-0.182-0.443-0.19-0.902c0.066-0.065,0.119-0.147,0.166-0.23c0.691-0.295,1.645-0.312,2.259-0.559
			c0.086,0.019,0.374,0.019,0.51-0.068c0.118,0.021,0.26,0.049,0.343,0.107C46.81,93.292,46.347,93.918,46.229,94.339z
			 M93.975,98.877c-0.068-0.073-0.217-0.098-0.283-0.171c-0.203-0.217-0.246-0.586-0.455-0.794
			c-0.141-0.142-0.408-0.164-0.567-0.284c-0.132-0.188-0.265-0.377-0.396-0.566c-0.383-0.306-0.681-0.832-1.08-1.078
			c-0.277-0.172-0.543-0.283-0.793-0.454c-0.021,0.038-0.039,0.075-0.059,0.112h0.059v0.058c-0.039-0.019-0.076-0.038-0.115-0.058
			c-0.035-0.098-0.01-0.056-0.057-0.112v0.112c-0.068,0.178,0.217,0.57,0.342,0.795c0.157,0.287,0.527,0.422,0.68,0.682
			c0.08,0.136,0.023,0.281,0.115,0.396c0.086,0.109,0.266,0.215,0.34,0.342c0.225,0.379,0.229,0.875,0.512,1.19
			c-0.03,0.623-0.467,0.627-1.021,0.738c-0.367,0.073-1.104,0.123-1.873-0.283c-0.731-0.388-1.258-0.914-1.815-1.59
			c-0.185-0.222-0.485-0.356-0.683-0.567c-0.767-0.82-1.006-1.961-2.271-2.326c-0.006,0.156,0.065,0.119-0.17,0.17
			c0.233,0.67,0.771,1.35,1.19,1.985c0.213,0.32,0.254,0.688,0.455,1.022c0.078,0.132,0.297,0.225,0.396,0.34
			c0.113,0.131,0.115,0.318,0.229,0.454c0.396,0.481,1.02,0.942,1.588,1.249c0.318,0.171,1.367,0.736,1.816,0.681
			c0.387-0.049,0.837-0.075,1.191-0.057c1.054,0.058,2.296-0.364,3.121-1.191c-0.067-0.092-0.014-0.104,0-0.284
			C94.216,99.231,94.122,99.041,93.975,98.877z M8.175,95.212c-0.154-0.398,0.097-0.65-0.056-0.854v-0.111
			c-0.423,0.006-0.294,0.039-0.501,0.152c-0.427-0.172-0.933-0.01-1.554,0.205c-0.32,0.109-0.548,0.306-0.666,0.377
			c-0.227,0.14-0.438-0.086-0.627,0.01c-0.229,0.115-0.033,0.162-0.341,0.171c0.359,0.67-0.68,1.603-0.511,2.327v0.057
			c-0.273,0.227-0.103,0.241-0.214,0.617c-0.085,0.292-0.581,2.184-0.239,2.618c0.192,0.146,0.194,0.082,0.348,0.202
			c0.15-0.16,0.714-0.902,0.682-1.027c0.118,0.029,0.148-0.075,0.34,0.006c0.488,0.223,0.459,0.086,0.857,0.288
			c0.038,0.076,0.126,0.091,0.165,0.166c0.095,0.063,0.323,0.092,0.402,0.136c-0.186,0.422-0.345,0.481-0.511,0.907
			c-0.092,0.063-0.031,0.005,0,0.114c-0.057,0.018-0.113,0.037-0.17,0.057c0.008,0.162,0.041,0.082,0,0.17
			c0.127,0.506,0.854,0.741,1.348,0.903c0.47-0.159,0.53-0.699,0.567-0.681c-0.008-0.164-0.04-0.084,0-0.17
			c0.04-0.066,0.087-0.082,0.154-0.062c-0.01-0.516,0.142-0.535,0.199-1c0.05-0.047,0.081-0.109,0.116-0.141
			c0.02-0.342,0.163-1.327,0.32-1.801c0.071-0.213,0.108-0.888,0.108-0.888s-0.092-0.253-0.103-0.253
			C8.444,97.25,8.342,95.642,8.175,95.212z M6.917,99.57c-0.019,0-0.077,0.038-0.096,0.038c-0.066-0.021-0.256-0.076-0.44-0.187
			c-0.116,0.017-0.229,0.015-0.251,0c-0.421,0.015-1.225-0.126-1.407-0.198v-0.057C4.685,98.959,4.77,98.89,4.78,98.713
			c0.205-0.354,0.353-0.547,0.442-0.791c0.178,0.056,0.59,0.124,0.693,0.11h0.057c-0.02,0.038,0.632,0.045,0.794,0.169
			c0.125,0.084,0.18,0.187,0.284,0.285C7.022,98.87,7.002,99.181,6.917,99.57z M7.446,96.33c-0.268,0.63-1.37,0.538-1.703,0.851
			c-0.266,0.057-0.467-0.125-0.624-0.113c-0.02-0.434,0.175-0.926,0.227-1.135c0.118-0.078,0.473-0.232,0.65-0.271
			c0-0.057,0.208-0.061,0.208-0.118c0.333-0.067,0.284-0.116,0.487-0.214c0.221-0.021,0.335,0.034,0.488,0.016
			c0.155,0.109,0.17,0.154,0.267,0.305C7.416,95.836,7.504,96.009,7.446,96.33z M45.382,97.196c0.602,0.092,2.211-0.1,3.228-0.354
			c0.266,0.014,0.531,0.026,0.795,0.04c0.578-0.059,0.892-0.106,1.301-0.255c0.052,0.012,0.197,0.075,0.228,0.053
			c0.323-0.225,0.567-0.478,0.778-0.754c0.02-0.002,0.038-0.002,0.057-0.002c0-0.02,0-0.037-0.001-0.058
			c-0.038-0.017-0.077-0.034-0.115-0.054c-0.229-0.152-1.199,0.129-1.817-0.019c-0.133-0.032-0.315-0.173-0.57-0.102
			c-0.183,0.051-0.519,0.217-0.563,0.237c-0.227,0.11-0.65,0.047-0.795-0.039c-0.224-0.073-0.371-0.297-0.409-0.561
			c-0.13,0.027-0.56-0.115-0.685-0.154c-0.117,0.196-0.254,0.648-0.324,0.743c0.073,0.168,0.257,0.253,0.404,0.333
			c0.001,0.057,0.002,0.112,0.003,0.17c-0.94,0.025-1.67,0.039-2.551,0.167c-0.359,0.052-0.569,0.281-0.849,0.132
			c-0.191-0.069-0.346-0.309-0.408-0.502c-0.352-0.026-0.706-0.178-0.854-0.097c-0.384,0.031-0.146,0.087-0.451,0.181
			c0.074,0.232-0.036,0.354,0.125,0.564c-0.022,0.232-0.011,0.193-0.165,0.287c-0.056,0.048-0.89,0.24-1.128,0.308
			c-0.811,0.228-2.132,0.232-3.225,0.579c-0.067,0.018-0.092,0.115-0.225,0.119c0.095,0.604,0.099,0.363,0.751,0.607
			c0.628,0.234,1.362,0.459,1.878,0.244c0.587-0.242,1.89-1.211,2.364-0.957c0.038-0.002,0.076-0.002,0.113-0.004
			c0.068,0.731-0.291,0.95-0.767,1.322c0.019,0,0.038-0.001,0.057-0.001c0,0.021,0,0.037,0.001,0.058
			c-0.215-0.067-0.623-0.093-0.848,0.131c-0.117,0.049-0.113,0.06-0.113,0.06c0,0.019,0.001,0.038,0.001,0.056
			c-0.151,0.017-0.066,0.008-0.225,0.119c0.022,0.178,0.021,0.09,0.005,0.229c0.221,0.113,0.49,0.223,0.744,0.324
			c-0.051,0.268-0.098,0.539-0.323,0.803c-0.12,0.138-0.318,0.213-0.389,0.404c-0.071,0.19,0.022,0.496,0.012,0.566
			c1.373-0.027,1.453-1.082,2.058-2.029c0.095-0.149,0.184-0.375,0.331-0.461c0.329-0.193,0.692-0.14,0.904-0.189
			c0.086,0.111,0.231,0.252,0.348,0.332c0.001,0.38-0.113,0.736-0.265,0.916c0.065,0.084-0.007,0.375-0.046,0.512
			c-0.185,0.648-0.609,1.098-1.283,1.049c-0.019,0.038-0.037,0.076-0.055,0.114c0.019,0,0.038,0,0.057-0.001
			c0,0.02,0,0.037,0.001,0.057c-0.039-0.019-0.077-0.037-0.115-0.054c0.078,0.476,0.584,0.701,0.982,0.831
			c0.162-0.043,0.475-0.119,0.567-0.069c0.211-0.052,0.396-0.198,0.504-0.352c0.157-0.095,0.137-0.511,0.209-0.856
			c0.113-0.542,0.511-0.646,0.367-1.425c-0.117-0.021-0.109-0.013-0.171-0.056c-0.015-0.062,0.518-0.866,0.658-1.092
			c0-0.072,0.038-0.028-0.059-0.112c0-0.019-0.001-0.038-0.001-0.058c0.038,0.02,0.076,0.036,0.114,0.056
			c-0.025-0.116-0.016-0.109-0.06-0.171c-0.069-0.157-0.01-0.104-0.174-0.166c-0.189-0.086-0.535,0.121-0.85,0.074
			c-0.033-0.004-0.938-0.135-1.136-0.031c-0.02,0-0.038,0-0.057,0c0.036-0.166-0.024-0.463,0.157-0.627
			c-0.041-0.191-0.107-0.174-0.29-0.277c-0.001-0.076-0.003-0.15-0.004-0.227c0.414-0.02,0.417-0.187,0.674-0.299
			C43.909,97.464,45.152,97.161,45.382,97.196z M83.532,98.024c-0.084,0.217-0.062,0.055-0.228,0.172
			c0.069,0.042-0.062,0.523-0.114,0.681c-0.09,0.265-0.453,1.071-0.738,1.306c0.135,0.487,0.313,1.256,0.738,1.646
			c0.168,0.154,0.412,0.113,0.625,0.229c0,0,0.334-0.08,0.396-0.058c0.164-0.198,0.188-0.471,0.396-0.625
			c0.006-0.97-0.195-0.853-0.396-1.418C83.907,99.101,84.092,98.558,83.532,98.024z M50.118,98.345
			c-0.34,0.067-0.519-0.175-0.741-0.097c-0.426,0.146-1.498,0.319-2.156,0.045c-0.082,0.062-0.279,0.099-0.395,0.121
			c0.066,0.17,0.202,0.476,0.13,0.792c-0.014,0.062-0.137,0.178-0.107,0.286c0.023,0.087,0.149,0.137,0.175,0.224
			c0.038,0.127-0.083,0.385-0.046,0.512c0.053,0.186,0.268,0.267,0.236,0.451c-0.013,0.075-0.173,0.252-0.219,0.344
			c0.185,0.175,0.399,0.445,0.636,0.555c1.053,0.484,3.007-0.155,3.5-0.925c0.271-0.423,0.217-1.729,0.701-1.774
			c-0.004-0.154-0.008-0.26-0.064-0.34C51.42,98.201,50.477,98.274,50.118,98.345z M49.982,99.995
			c0.004,0.344-0.057,0.417-0.157,0.627c-0.351,0.1-0.854,0.141-1.359,0.143c-0.081-0.082-0.188-0.162-0.289-0.222
			c0.021-0.565,0.098-1.295,0.25-1.595c0.7-0.031,1.333,0.014,1.6,0.533C50.073,99.534,50.102,99.827,49.982,99.995z M14.963,98.397
			c-0.054,0.221-0.079,0.355-0.19,0.379c0.001-0.019-0.286,0.162-0.252,0.222c-0.038-0.004-0.075-0.007-0.113-0.011
			c-0.138-0.129-0.21,0.048-0.333,0.097c-0.117,0.327-0.249,0.325-0.4,0.521c0.02,0.438,0.073,0.664,0.029,1.293
			c-0.066,0.322-0.206,0.541-0.194,0.636c-0.123,0.192-0.266,0.432-0.331,0.542c-0.089,0.082-0.469,0.322-0.613,0.518
			c-0.428-0.166-0.875-0.229-1.518-0.24c-0.091-0.314-0.222-0.414-0.457-0.666c0.024-0.299,0.024-0.508,0.058-0.68
			c0.208,0.012,0.24-0.085,0.458-0.018c0.001-0.02,0.132-0.059,0.134-0.077c0.153,0.062,0.219,0.217,0.37,0.176
			c0.08,0.077,0.229,0.163,0.327,0.22c0.166-0.084,0.283-0.256,0.413-0.213c0.001-0.02,0.087-0.072,0.089-0.091
			c0.169-0.233,0.131-0.498,0.133-0.519c0.032-0.27-0.012-0.28,0.019-0.705c-0.019-0.002-0.038-0.003-0.056-0.006
			c-0.102,0.046-0.989,0.082-1.146,0.076c-0.132-0.008-0.458-0.115-0.636-0.088c-0.181,0.026-0.47,0.191-0.589,0.233
			c-0.074,0.041-0.61,0.056-0.684,0c-0.241-0.094-0.31-0.304-0.419-0.435c0.221-0.25,0.137-0.398,0.073-0.66
			c0.071-0.144,0.309-0.314,0.309-0.314s0.303-0.059,0.295-0.089c0.019,0,0.037,0.002,0.056,0.004
			c0.183,0.118,0.362,0.056,0.44,0.074c0.407,0.104,0.587,0.079,0.807,0.167c0.208-0.01,0.5-0.02,0.501-0.037
			c0,0,0.093-0.018,0.131-0.014c0.137,0.078,0.452-0.09,0.792-0.137c0.001-0.019,0.003-0.037,0.005-0.057
			c0.053-0.229,0.012-0.499-0.009-0.758c0.028-0.112,0.056-0.225,0.084-0.335c-0.028-0.079-0.087-0.312-0.087-0.312
			s-0.166-0.022-0.346,0.045c-0.313,0.064-0.565,0.166-1.094,0.138c-0.05-0.081-0.1-0.161-0.15-0.241
			c0.071-0.043,0.068-0.041,0.123-0.104c-0.258-0.121-0.175-0.311-0.25-0.42c0.191-0.214,0.151-0.369,0.486-0.357
			c0.179-0.114,0.386-0.031,0.349-0.085c0.038,0.004,0.075,0.007,0.113,0.011c0.063-0.059,0.412-0.324,0.655-0.344
			c0.057-0.287-0.25-0.461-0.348-0.6c-0.034-0.109,0.07-0.156,0.071-0.166c0.135-0.007,0.265-0.078,0.388-0.16
			c0.089-0.062,0.368-0.053,0.512,0.023c0.253,0.16,0.435,0.377,0.486,0.598c0.027,0.116-0.059,0.207-0.029,0.338
			c0.497,0.002,0.789,0.287,1.276,0.394c0.001,0.25,0.005,0.188,0.023,0.401c-0.036-0.022-0.112-0.029-0.113-0.012
			c0.022,0.129-0.293,0.204-0.293,0.204s-0.621,0.081-0.721,0.337c-0.065,0.104-0.109,0.963-0.034,1.08
			c0.063,0.067,0.189,0.146,0.269,0.194c0.019,0.001,0.038,0.003,0.056,0.005c0.101-0.068,0.038-0.104,0.185-0.156
			C14.267,98.276,14.556,98.351,14.963,98.397z"/>
	</g>
	<g>
		<polygon fill="#FFFFFF" points="108.526,11.604 102.401,15.14 96.278,11.604 102.401,8.067 		"/>
		<polygon fill="#FFFFFF" points="108.526,11.604 108.526,17.996 102.401,21.532 102.401,15.14 		"/>
		<polygon fill="#FFFFFF" points="120.774,11.604 120.774,17.996 114.649,21.532 114.649,15.14 		"/>
		<polygon fill="#FFFFFF" points="108.526,11.604 114.649,15.14 114.649,21.532 108.526,17.996 		"/>
		<polygon fill="#FFFFFF" points="108.526,11.604 108.526,5.211 114.649,1.676 114.649,8.067 		"/>
		<polygon fill="#FFFFFF" points="108.526,11.604 102.401,8.067 102.401,1.676 108.526,5.211 		"/>
	</g>
</g>
</svg>
